<?xml version="1.0" encoding="UTF-8" standalone="no"?>
<!-- Created with Inkscape (http://www.inkscape.org/) -->

<svg
   xmlns:dc="http://purl.org/dc/elements/1.1/"
   xmlns:cc="http://creativecommons.org/ns#"
   xmlns:rdf="http://www.w3.org/1999/02/22-rdf-syntax-ns#"
   xmlns:svg="http://www.w3.org/2000/svg"
   xmlns="http://www.w3.org/2000/svg"
   xmlns:sodipodi="http://sodipodi.sourceforge.net/DTD/sodipodi-0.dtd"
   xmlns:inkscape="http://www.inkscape.org/namespaces/inkscape"
   width="647.05798"
   height="500"
   id="svg3116"
   version="1.1"
   inkscape:version="0.92.1 r15371"
   sodipodi:docname="11_familia jugando ajedrez_By_DG-RA.svg"
   viewBox="0 0 606.61686 468.75">
  <defs
     id="defs3118" />
  <sodipodi:namedview
     id="base"
     pagecolor="#ffffff"
     bordercolor="#666666"
     borderopacity="1.0"
     inkscape:pageopacity="0.0"
     inkscape:pageshadow="2"
     inkscape:zoom="0.63773148"
     inkscape:cx="320.71327"
     inkscape:cy="223.44828"
     inkscape:document-units="in"
     inkscape:current-layer="layer1"
     showgrid="false"
     inkscape:window-width="1280"
     inkscape:window-height="748"
     inkscape:window-x="-8"
     inkscape:window-y="-8"
     inkscape:window-maximized="1"
     inkscape:snap-global="false"
     showguides="true"
     inkscape:guide-bbox="true" />
  <metadata
     id="metadata3121">
    <rdf:RDF>
      <cc:Work
         rdf:about="">
        <dc:format>image/svg+xml</dc:format>
        <dc:type
           rdf:resource="http://purl.org/dc/dcmitype/StillImage" />
        <dc:title></dc:title>
      </cc:Work>
    </rdf:RDF>
  </metadata>
  <g
     inkscape:groupmode="layer"
     id="layer3"
     inkscape:label="FONDO"
     sodipodi:insensitive="true">
    <path
       style="opacity:1;vector-effect:none;fill:#ffffff;fill-opacity:1;fill-rule:evenodd;stroke:none;stroke-width:1.84584618;stroke-linecap:butt;stroke-linejoin:miter;stroke-miterlimit:4;stroke-dasharray:none;stroke-dashoffset:0;stroke-opacity:1;paint-order:normal"
       d="M 606.61688,2.6089479e-6 V 468.75 H -1.7640991e-5 V 2.6089479e-6 Z"
       id="rect4763"
       inkscape:connector-curvature="0" />
  </g>
  <g
     inkscape:label="Capa 1"
     inkscape:groupmode="layer"
     id="layer1"
     transform="translate(0,-583.61218)">
    <path
       style="fill:#080808;stroke:#000000;stroke-width:1.13471425"
       d="m 1.5374821,971.00697 v -2.6555 l 4.54012,-2.0629 4.5401199,-2.0627 -0.51,-0.6461 c -0.8218599,-1.0411 -3.1276399,-5.949 -3.7229299,-7.9243 -0.88882,-2.9493 -1.90973,-8.3576 -2.18372,-11.5684 -0.34522,-4.0455 -0.34906,-19.2126 -0.005,-19.2126 0.17118,0 0.2443,-4.6573 0.20785,-13.2677 -0.0509,-12.1 -0.003,-13.7613 0.53894,-18.878 1.89226,-17.8453 7.1651199,-42.2653 12.2679499,-56.8161 1.676,-4.7791 4.4495,-11.1005 6.40658,-14.6017 0.83907,-1.5012 2.21539,-4.2306 3.05848,-6.0653 3.26848,-7.11282 5.53055,-10.37521 12.51555,-18.05003 2.92627,-3.21525 5.40897,-6.01557 5.51713,-6.2229 0.13042,-0.25016 -0.5417,-0.9925 -1.99572,-2.2048 -9.82595,-8.19218 -16.32279,-19.04502 -18.60823,-31.08468 -0.84047,-4.4277 -0.84047,-12.36589 0,-16.79359 2.45634,-12.93991 10.25643,-25.17808 20.99297,-32.93748 1.20024,-0.86743 2.18813,-1.6605 2.19532,-1.76233 0.007,-0.10189 -0.60836,-0.26909 -1.36786,-0.37161 -0.75947,-0.10236 -2.00026,-0.53173 -2.75725,-0.95382 -2.70089,-1.50595 -6.45227,-6.09823 -7.99558,-9.78787 -0.61475,-1.46966 -0.74772,-2.25206 -0.85122,-5.00897 -0.15539,-4.1359 0.31814,-6.5637 2.08317,-10.68274 2.3952,-5.58972 6.25062,-9.74345 12.09921,-13.03541 5.53453,-3.11521 9.0811,-4.07227 15.98077,-4.31246 4.98892,-0.17362 9.05299,0.1727 11.37625,0.9695 6.26206,2.14778 10.57938,8.21295 11.0051,15.46036 0.29353,4.99697 -1.42606,10.97003 -4.16722,14.4751 l -1.30449,1.66798 6.03994,0.1811 c 6.70055,0.20062 11.29141,0.84727 16.949918,2.38776 22.78952,6.20434 39.43106,22.96439 43.24834,43.55634 0.79636,4.29588 0.95839,10.33154 0.3843,14.3136 -0.25245,1.75133 -0.55047,5.02656 -0.66211,7.27827 -0.1373,2.77084 -0.38328,4.73818 -0.7608,6.08709 -1.02092,3.64791 -3.55651,7.26089 -6.3068,8.98665 -0.76043,0.47716 -2.15573,1.8595 -3.19316,3.16361 -6.38514,8.02633 -15.16302,14.37243 -25.49715,18.43345 -1.73587,0.68215 -3.88924,1.45246 -4.78525,1.71179 -0.896,0.25932 -2.08475,0.607 -2.64168,0.77261 l -1.01257,0.30108 0.17273,2.18244 c 0.15588,1.97079 1.00893,6.78089 1.25148,7.05733 0.0537,0.0613 1.20854,-0.43419 2.56603,-1.10119 6.58376,-3.23485 12.52395,-3.86556 18.28646,-1.94168 0.46418,0.15478 0.78128,-0.16861 1.84712,-1.88385 3.00737,-4.84022 8.14632,-9.67655 13.5583,-12.75996 14.8547,-8.46315 33.76704,-7.09123 47.13109,3.41901 1.33478,1.04975 2.65196,1.88674 2.92705,1.85996 0.3059,-0.0297 0.46861,0.11824 0.41884,0.38101 -0.0448,0.23653 0.62835,1.25988 1.49572,2.27449 4.22567,4.94305 6.6519,9.67136 8.087,15.76044 0.83309,3.5345 0.83309,10.4841 0,14.0187 -0.58093,2.4648 -2.00223,6.6015 -2.51736,7.327 -0.57705,0.8126 0.096,0.692 1.84413,-0.3305 2.50608,-1.4659 12.60554,-6.3843 16.31803,-7.9469 1.68305,-0.7084 4.61675,-1.9675 6.51933,-2.7981 5.39014,-2.353 18.32795,-7.1371 24.34778,-9.0032 12.93806,-4.0107 22.94345,-5.855 25.03044,-4.6138 0.37538,0.2233 1.4171,0.4311 2.31491,0.4618 1.76516,0.06 2.1914,-0.2986 2.1914,-1.8454 0,-0.3909 0.18881,-1.01802 0.41976,-1.39368 0.39671,-0.64547 0.37479,-0.74142 -0.39918,-1.74596 -1.16035,-1.50623 -1.12144,-2.79905 0.12164,-4.04306 1.21137,-1.21215 2.01827,-1.19408 3.23088,0.0724 0.74312,0.77615 1.00715,1.32583 1.127,2.34633 0.11891,1.01323 0.2841,1.36027 0.6887,1.44789 0.29271,0.0635 0.85008,0.37219 1.23854,0.6863 0.38845,0.31411 0.89232,0.57112 1.11966,0.57112 0.64409,0 1.88445,2.67536 1.90823,4.11576 0.0113,0.7987 0.23108,1.5538 0.60458,2.0949 0.69025,1.0001 0.7308,1.6839 0.17271,2.9137 -0.39984,0.8813 -0.38642,0.9393 0.48769,2.1032 1.9235,2.561 4.30071,8.6707 5.11136,13.1367 0.11756,0.6471 0.26646,0.8133 0.59884,0.668 0.8487,-0.3711 2.69502,-0.5428 3.64772,-0.3391 0.71108,0.1523 1.16442,0.5272 1.7498,1.4483 1.30131,2.0472 0.98979,3.6655 -1.13542,5.8981 -0.64247,0.6749 -1.75931,1.6231 -2.48185,2.1071 l -1.3137,0.88 22.68473,0.078 c 12.47664,0.042 32.866,0.042 45.30973,0 l 22.625,-0.078 0.0608,-6.5835 0.0608,-6.5835 -1.53114,0.1822 -1.53112,0.1825 0.0136,-2.0902 c 0.0204,-2.7436 0.43326,-4.0392 1.51914,-4.7594 1.1564,-0.7671 1.659,-0.5058 1.659,0.8623 0,0.8784 0.0917,1.0729 0.46566,0.9897 0.31913,-0.071 0.46571,-0.3881 0.46571,-1.0078 0,-0.7986 0.13299,-0.9524 1.13732,-1.3145 1.38513,-0.4995 1.78933,-0.2195 2.20165,1.5258 0.23257,0.9841 0.38643,1.1797 0.86674,1.1019 0.45282,-0.073 0.60382,-0.3329 0.67229,-1.155 0.15636,-1.8821 0.68641,-2.1062 2.76575,-1.17 0.52447,0.2362 0.77211,0.611 0.89443,1.3542 0.093,0.5652 0.26091,1.0277 0.37305,1.0277 0.36312,0 0.79407,-0.7927 0.96709,-1.779 0.20493,-1.1681 0.40294,-1.3308 1.30485,-1.0729 0.87401,0.2499 1.07639,0.8625 1.31827,3.9896 l 0.19381,2.5023 -0.84736,0.9021 c -0.6011,0.6399 -1.22655,0.9594 -2.15187,1.0993 -0.7175,0.1085 -1.43902,0.382 -1.60348,0.6078 -0.38876,0.5339 0.1534,7.1505 0.78002,9.5203 l 0.44106,1.668 2.39481,0.1516 2.39489,0.1516 2.55222,1.8953 c 1.40373,1.0425 2.63108,1.8954 2.72752,1.8954 0.0962,0 0.17519,-1.4131 0.17519,-3.1404 v -3.1403 l -0.83706,-0.2736 c -1.18731,-0.3881 -1.53059,-1.121 -1.015,-2.167 0.32812,-0.6658 0.57015,-0.8129 1.21467,-0.7386 l 0.80485,0.093 0.004,-1.7607 c 0.003,-0.9684 0.17202,-2.7501 0.37436,-3.9593 0.28678,-1.713 0.46904,-2.1987 0.82514,-2.1987 0.34168,0 0.50377,0.3633 0.64259,1.4405 0.10213,0.7923 0.29698,1.7803 0.4331,2.1955 0.23824,0.7265 0.27818,0.69 1.05791,-0.9661 1.26557,-2.688 1.92094,-2.709 2.15998,-0.069 0.0853,0.9398 0.23034,1.7947 0.3223,1.8997 0.0924,0.1049 0.39291,-0.1479 0.66821,-0.5626 0.44145,-0.6646 0.45588,-0.8253 0.12187,-1.3601 -3.04376,-4.8751 -4.6206,-8.4604 -5.64112,-12.8262 -0.58557,-2.505 -0.69181,-3.621 -0.71349,-7.4923 -0.0282,-5.00128 0.35127,-7.56565 1.71663,-11.60895 l 0.74555,-2.20782 -0.64509,-0.73518 c -0.53994,-0.61538 -0.64504,-1.03293 -0.64504,-2.56237 0,-1.00497 0.1904,-2.36985 0.42334,-3.03306 l 0.4233,-1.20581 -0.9555,-1.12126 c -1.15789,-1.35875 -1.26852,-2.81963 -0.37502,-4.95076 0.75108,-1.79142 3.4267,-4.78264 5.28121,-5.90412 0.80076,-0.48426 1.49071,-0.91056 1.53324,-0.9474 0.0425,-0.037 -0.18337,-0.57089 -0.50243,-1.18686 -0.50998,-0.985 -0.5431,-1.25956 -0.27498,-2.27939 0.59502,-2.26349 4.04486,-4.88945 8.15079,-6.20431 2.36906,-0.7586 8.52862,-1.79507 12.90569,-2.17161 6.03598,-0.51927 17.88226,1.44451 24.34178,4.0352 4.13208,1.65725 11.65145,5.77345 16.18463,8.85973 5.46588,3.72125 7.85263,5.90683 9.42505,8.63053 0.68337,1.18366 1.66406,2.76623 2.17933,3.51679 0.5153,0.75062 0.97225,1.42296 1.01544,1.49415 0.1938,0.31904 1.06542,-1.44224 3.39113,-6.85011 1.37444,-3.19599 2.71687,-5.95529 2.98319,-6.13182 0.60251,-0.39935 0.40486,-0.40195 -1.88376,-0.0254 -2.10317,0.34649 -4.46079,-0.0181 -6.03371,-0.93235 -2.36767,-1.37668 -4.23774,-5.27077 -4.23774,-8.8246 0,-0.93006 -0.12551,-1.53834 -0.33264,-1.6117 -0.18268,-0.0647 -1.4702,-0.4769 -2.86052,-0.91572 -1.39039,-0.43891 -3.75441,-1.46451 -5.25352,-2.27912 -9.0029,-4.89239 -13.24961,-11.69364 -13.08519,-20.95623 0.0445,-2.48924 -0.0181,-2.81812 -1.06896,-5.60924 -2.26412,-6.01567 -3.40274,-13.16973 -3.13309,-19.68596 0.52166,-12.60826 5.66474,-24.65804 14.63416,-34.28654 10.14966,-10.89542 23.688,-17.78527 39.9712,-20.34187 4.88945,-0.76766 15.92303,-0.76801 20.75555,-5.9e-4 13.01435,2.06655 23.89259,6.67371 33.24398,14.07949 l 2.11061,1.67153 3.87654,0.23747 c 5.42058,0.33197 7.97103,1.24067 10.28042,3.66283 1.57746,1.65453 2.31804,2.9836 2.93825,5.27302 0.26888,0.99263 0.59017,1.88689 0.71392,1.98715 0.27555,0.22355 -0.91862,3.64907 -1.80294,5.17194 l -0.64514,1.11105 1.03073,0.47002 c 2.29122,1.04477 3.80247,3.37017 4.67146,7.18794 0.69411,3.04941 0.21424,5.64965 -1.40759,7.62564 -0.59809,0.72878 -0.66374,1.02648 -0.56833,2.57771 0.0591,0.96457 0.0933,3.86903 0.076,6.45436 -0.0481,7.08906 -1.1168,12.20068 -3.99051,19.08397 -2.36856,5.67314 -5.04853,9.9293 -9.51192,15.10592 l -2.41626,2.80246 1.22464,1.44322 c 3.97262,4.68137 6.04116,11.18043 6.49209,20.39701 0.12709,2.59813 0.37904,4.50635 0.80074,6.06518 1.44192,5.33045 2.87612,13.16711 4.74534,25.92884 2.03238,13.8759 2.63736,21.4177 2.63948,32.9038 0.005,23.4121 -3.21826,47.3747 -9.91049,73.6924 -0.74221,2.9189 -1.34972,5.4592 -1.34996,5.6452 0,0.3083 6.21691,3.3958 15.8323,7.8622 2.04894,0.9518 4.44379,2.1154 5.32193,2.5859 0.87813,0.4703 2.55451,1.1512 3.72533,1.5128 1.17081,0.3617 2.29514,0.8128 2.49845,1.0027 0.20335,0.1894 1.16132,0.7045 2.12877,1.144 l 1.75909,0.799 0.0763,2.7611 0.0765,2.7612 -0.60868,-0.2657 c -8.51919,-3.7198 -31.65855,-14.179 -33.60464,-15.1897 -2.43757,-1.2661 -29.88208,-14.0266 -33.92729,-15.7748 -8.52974,-3.6862 -13.01635,-5.7385 -17.51474,-8.0118 -2.5016,-1.2641 -4.72834,-2.2985 -4.94825,-2.2985 -0.21991,0 -0.67406,-0.326 -1.00928,-0.7244 -0.96952,-1.1522 -6.78595,-4.4637 -12.84993,-7.3156 -13.71382,-6.4497 -22.26194,-11.3275 -26.10848,-14.8981 -0.81291,-0.7546 -1.51725,-1.3268 -1.56523,-1.2715 -0.0478,0.055 -0.51945,1.1818 -1.04765,2.5037 -1.01419,2.5376 -1.81548,3.7867 -4.75888,7.4182 l -1.81557,2.2401 3.54483,2.619 c 1.94963,1.4404 9.02638,6.6416 15.72607,11.5583 11.40567,8.3701 12.12013,8.9454 11.2208,9.0349 -0.60394,0.06 -0.91685,0.2292 -0.84284,0.455 0.0647,0.1976 1.11075,3.3292 2.32448,6.9592 1.21369,3.6299 2.15419,6.6597 2.08999,6.7329 -0.18246,0.2081 -352.38697,-3.834 -352.5927,-4.0463 -0.10065,-0.1039 -0.38669,-2.304 -0.63564,-4.8893 -0.24887,-2.5853 -0.47724,-4.736 -0.50728,-4.7796 -0.03,-0.044 -0.58222,0.1371 -1.22706,0.4011 -1.60419,0.657 -8.93866,1.112 -14.07808,0.8733 l -4.1245,-0.1915 -2.12877,0.9809 c -4.03734,1.8604 -11.51425,3.0191 -19.48303,3.0191 -2.56152,0 -2.80673,0.055 -4.01705,0.9038 -2.012758,1.4115 -3.605058,2.1214 -5.838518,2.6029 -2.55658,0.5514 -4.99128,1.8646 -11.56475,6.2375 -8.39882,5.5872 -16.81109,10.3535 -28.28174,16.024 -15.19821,7.5133 -33.70759,16.3872 -46.1012199,22.1023 l -7.25141,3.3437 z m 16.4979999,-10.2401 c 1.97575,-0.9197 7.70273,-3.665 12.72657,-6.1009 l 9.13428,-4.4289 -3.41319,-0.969 c -3.6126,-1.0256 -6.548,-2.1911 -7.9108,-3.1408 -0.4534,-0.316 -2.02178,-1.0793 -3.48531,-1.6963 -6.37635,-2.6881 -12.6601,-7.0756 -16.0521799,-11.2083 -1.55139,-1.89 -1.64294,-1.9546 -1.63795,-1.1569 0.0152,2.5841 1.44962,14.9079 2.51456,21.6185 0.3573199,2.2517 0.7301799,4.7764 0.8285599,5.6103 0.20075,1.7008 0.46517,2.4234 1.2442,3.3988 0.50919,0.6375 0.58049,0.6474 1.4968,0.2076 0.52918,-0.2539 2.57869,-1.2144 4.55446,-2.134 z m 33.12899,-16.0448 c 13.74645,-6.7922 21.27759,-11.0109 29.53671,-16.5454 2.78072,-1.8634 6.3522,-4.105 7.93666,-4.9814 l 2.88082,-1.5934 -1.41729,-0.2054 c -5.41649,-0.786 -14.36691,-2.924 -19.89752,-4.753 -3.60371,-1.1918 -7.21458,-2.8413 -11.18465,-5.1094 -1.75442,-1.0023 -3.36182,-1.8223 -3.57202,-1.8223 -0.53951,0 -5.37573,-3.2014 -6.81063,-4.5083 -1.7999,-1.6395 -6.49653,-6.2832 -6.83115,-6.7542 -0.41051,-0.5779 -1.5438,-3.9015 -2.31244,-6.7815 -0.35609,-1.3344 -1.26839,-4.2534 -2.02735,-6.4868 -1.65069,-4.8575 -2.9338,-10.3332 -3.91628,-16.7127 -0.67418,-4.3778 -0.72452,-5.3045 -0.73298,-13.4951 -0.007,-7.0889 0.068,-9.0241 0.38835,-9.978 0.63982,-1.9053 1.8885,-2.4449 1.31441,-0.568 -0.40126,1.3118 0.12686,13.7009 0.82585,19.3754 1.29923,10.5466 3.32577,19.2379 6.2981,27.011 1.33687,3.4961 3.75171,8.3111 4.81698,9.6048 2.05725,2.4982 7.22735,5.5787 12.442,7.4134 21.72109,7.6423 34.00773,10.1152 48.009648,9.6631 7.81708,-0.2524 14.47385,-1.1463 16.23188,-2.1797 0.3659,-0.2152 1.23207,-0.6191 1.92485,-0.8976 0.69278,-0.2786 1.52452,-0.751 1.84829,-1.0498 l 0.58868,-0.5434 -0.87276,-3.3 c -2.27291,-8.5943 -2.22092,-8.2632 -2.35136,-14.9757 -0.12993,-6.6819 0.29393,-11.0481 1.50062,-15.461 0.36403,-1.3314 0.45029,-2.0655 0.2672,-2.2745 -0.16684,-0.1901 -4.01059,-0.3857 -10.03648,-0.5101 -11.74464,-0.2423 -15.47717,-0.7355 -19.044138,-2.5162 -0.75122,-0.3751 -2.16024,-0.9805 -3.13112,-1.3453 -0.97086,-0.3649 -1.98868,-0.9462 -2.26181,-1.2918 -0.27313,-0.3456 -0.76601,-0.7457 -1.09531,-0.8892 -0.45869,-0.2002 -0.5987,-0.5023 -0.5987,-1.2928 0,-2.2901 -0.967,-2.1817 -6.25329,0.701 -2.19529,1.197 -5.30861,2.8825 -6.91851,3.7453 -6.78285,3.6354 -13.22783,7.8124 -14.96792,9.7009 -0.87262,0.947 -1.1203,0.7312 -0.56154,-0.4892 0.82712,-1.8066 5.13676,-6.4142 8.06045,-8.6178 3.94633,-2.9743 13.10335,-7.7865 16.4011,-8.6192 0.79513,-0.2008 1.48106,-0.3923 1.52428,-0.4255 0.0434,-0.033 -0.27226,-1.4077 -0.70113,-3.0542 -2.27284,-8.7255 -3.29571,-16.8343 -3.76307,-29.8321 -0.61843,-17.1982 -1.23789,-26.02904 -2.02239,-28.83017 -0.41012,-1.46435 -3.02773,-5.06911 -5.14461,-7.08475 -2.1141,-2.01298 -6.15493,-4.2254 -10.40035,-5.69438 -2.51144,-0.86901 -7.81107,-1.08092 -10.11166,-0.4043 -2.44808,0.71996 -7.07894,3.29869 -8.0773,4.49785 -0.46032,0.55293 -1.61527,1.70465 -2.56658,2.55946 -3.99432,3.5891 -8.98879,10.32145 -12.87126,17.34999 -2.12726,3.851 -6.39822,12.8724 -7.68923,16.2416 -3.7461,9.7766 -5.41568,15.0733 -7.755,24.6023 -4.37179,17.8082 -7.5163399,37.9143 -8.9687599,57.3459 -0.24786,3.315 -0.25066,4.9779 -0.0127,7.1847 0.17016,1.5792 0.30962,3.404 0.30962,4.0551 0,1.415 1.43309,4.0884 3.2262499,6.0184 2.92764,3.151 6.23421,5.5351 15.13443,10.912 8.88706,5.3691 9.11225,5.4797 13.43786,6.6031 2.19528,0.5702 4.23091,0.9625 4.52363,0.8718 0.29272,-0.091 3.64552,-1.7031 7.4507,-3.5832 z m 22.48516,-59.6381 c 0,-2.0119 5.08492,-9.1763 8.44279,-11.8954 2.15088,-1.7418 4.56898,-2.9953 5.47762,-2.8397 0.78071,0.1337 1.16753,0.9851 0.72413,1.5939 -0.19741,0.2712 -2.40579,2.0778 -4.90737,4.0146 -5.50072,4.259 -7.07239,5.7378 -8.58202,8.0749 -0.96981,1.5014 -1.15515,1.6701 -1.15515,1.0517 z m 421.194798,38.5132 c -1.018,-3.0377 -1.88217,-5.5587 -1.92048,-5.6024 -0.12346,-0.1404 -345.69439,-7.3227 -345.81562,-7.1872 -0.11949,0.1334 1.22108,14.0716 1.36717,14.2159 0.0586,0.058 219.27483,2.6377 344.7179,4.057 l 3.50182,0.039 z m 78.29147,-2.5646 c 2.16641,-10.6104 4.84434,-26.645 6.221,-37.25 1.98505,-15.291 2.89806,-33.7727 2.29213,-46.3988 -0.4127,-8.5992 -0.7784,-12.3768 -2.5542,-26.38374 -1.51872,-11.97927 -1.91222,-14.70667 -1.96147,-13.59501 -0.5349,12.07579 -1.97588,22.57715 -4.98637,36.33955 -3.83549,17.5337 -6.37952,24.4088 -15.4861,41.85 -7.35996,14.0961 -10.3468,19.1482 -16.67068,28.1978 -1.9793,2.8325 -3.59876,5.2338 -3.59876,5.3363 0,0.3007 11.75289,6.1314 19.82416,9.835 4.09788,1.8803 9.30672,4.3076 11.57522,5.3939 2.26845,1.0863 4.16463,1.931 4.21371,1.8772 0.0493,-0.054 0.55816,-2.3948 1.13136,-5.2022 z m -427.77115,-6.9997 c -0.46935,-3.3273 -0.69373,-6.232 -0.49847,-6.453 0.12659,-0.1435 3.82255,-2.9436 8.21314,-6.2227 4.39059,-3.279 8.02222,-6.004 8.07029,-6.0553 0.0482,-0.051 -0.21728,-1.8454 -0.58971,-3.9868 -0.37242,-2.1413 -0.85851,-5.1119 -1.08026,-6.6012 -0.2216,-1.4894 -0.55506,-2.8178 -0.74074,-2.9522 -0.18573,-0.1339 -1.12516,-0.2463 -2.08768,-0.2488 -0.96254,0 -3.59689,-0.4095 -5.85412,-0.9044 -6.87471,-1.507 -15.89024,-2.9972 -19.47116,-3.2185 l -3.39271,-0.2099 v 1.2373 c 0,0.6804 -0.19284,3.5306 -0.42852,6.3337 -0.58447,6.9514 -0.39138,14.1963 0.53329,20.0088 0.8395,5.2772 1.6438,8.188 2.3983,8.6795 0.3833,0.2497 2.34135,0.3663 6.2781,0.3739 4.5847,0.01 5.95892,0.1085 6.91851,0.5021 1.71549,0.7037 1.86738,0.6789 1.73174,-0.2827 z m 341.9319,-0.6682 c -0.87813,-0.6564 -6.44621,-4.8139 -12.37353,-9.239 l -10.77686,-8.0455 -12.10737,0.1131 c -6.6591,0.062 -16.05814,0.1271 -20.88685,0.1438 l -8.77942,0.031 7.55075,8.6093 7.55082,8.6094 7.48189,0.2167 c 7.58038,0.2197 29.62458,0.6205 38.88129,0.7074 l 5.05585,0.047 z m -97.52439,-0.8685 c 0,-0.287 -7.89473,-15.5293 -8.26758,-15.9621 -0.25649,-0.2978 -30.12126,-0.453 -31.94583,-0.1662 l -0.96421,0.1516 2.40604,7.6574 2.4061,7.6573 2.15041,0.031 c 3.89208,0.056 33.54241,0.7841 33.88248,0.832 0.18269,0.026 0.33259,-0.065 0.33259,-0.201 z m -74.91685,-2.5573 c -0.0606,-0.5421 -0.2345,-3.1009 -0.38669,-5.6861 -0.15227,-2.5853 -0.34754,-5.4993 -0.43448,-6.4755 l -0.15795,-1.7748 -17.46657,0.2117 c -9.60658,0.1162 -17.50521,0.2542 -17.55251,0.306 -0.0951,0.1042 -2.70804,13.1226 -2.70804,13.492 0,0.2112 20.05149,0.7278 33.31183,0.8581 l 5.50481,0.054 z m -78.68732,-7.3188 c 1.93915,-3.3892 3.52576,-6.2314 3.52576,-6.3159 0,-0.085 -9.62025,-0.1802 -21.37839,-0.212 l -21.37836,-0.058 -6.47243,6.005 c -5.32943,4.9445 -6.35897,6.0206 -5.82999,6.0936 1.56174,0.2159 21.79179,0.576 34.30365,0.6114 l 13.70397,0.038 z m 301.09241,1.8434 c 6.66599,-10.0904 16.16013,-26.4051 20.5942,-35.389 8.01556,-16.2403 16.40656,-59.50082 16.41126,-84.60976 0.003,-7.94866 -0.35253,-11.4376 -1.47134,-14.50049 -0.77555,-2.12309 -2.57818,-5.44503 -4.04421,-7.45277 l -0.64016,-0.87662 -2.69115,2.31037 c -4.73857,4.06806 -10.24371,7.51546 -16.32267,10.22155 -1.72796,0.76919 -3.06211,1.60427 -3.9914,2.4983 -3.71004,3.56906 -7.9804,6.60649 -15.366,10.92961 -2.85388,1.67047 -5.76206,3.54994 -6.46249,4.17653 -2.35193,2.10384 -4.54227,2.14758 -8.17281,0.16317 -3.44396,-1.88238 -6.84398,-6.88053 -7.31058,-10.74651 l -0.18132,-1.50189 -1.21912,0.41819 c -2.02986,0.69624 -5.61701,0.54482 -7.63859,-0.3224 l -1.72641,-0.74056 -1.73813,1.91383 c -1.21097,1.33336 -1.94451,2.45482 -2.41844,3.69738 -0.74201,1.94567 -2.36079,6.05497 -3.66683,9.30842 -0.45618,1.1364 -0.97186,2.20094 -1.14592,2.36557 -0.23675,0.22376 -0.0259,0.92726 0.83324,2.78595 0.935,2.02217 1.9304,4.99423 2.69656,8.05122 0.11143,0.44497 2.37856,-3.32913 5.15115,-8.57537 1.7985,-3.40308 2.39852,-4.11448 2.39852,-2.84387 0,1.12575 -1.88772,5.04914 -4.60983,9.58091 l -2.49789,4.15853 0.12346,3.33581 c 0.0842,2.2794 -0.0113,4.2225 -0.30368,6.1354 -0.41398,2.7151 -0.41086,2.8293 0.10326,3.7908 0.62122,1.1612 0.68437,2.8703 0.15909,4.3033 -0.5138,1.4015 -2.14298,3.3891 -3.54601,4.3261 -0.64338,0.4297 -1.81159,1.6845 -2.59613,2.7884 -4.17679,5.8774 -8.23226,9.5509 -14.27612,12.9313 -1.62493,0.9089 -2.79044,1.7076 -2.59007,1.775 3.58354,1.2055 6.26802,2.8755 7.7201,4.8027 1.0922,1.4495 1.26979,1.8908 1.53005,3.8026 0.16181,1.1896 0.29445,3.2723 0.29445,4.6284 0,2.0658 0.10508,2.6711 0.64945,3.7327 1.16365,2.2701 2.49299,9.6362 2.57021,14.2418 0.0136,0.87 0.10553,1.9018 0.20175,2.293 l 0.17521,0.7114 0.52988,-0.6715 c 0.29147,-0.3692 1.66749,-1.7773 3.05784,-3.129 4.21872,-4.1016 9.84557,-9.9402 9.84557,-10.2161 0,-0.1429 2.72418,-3.4433 6.05369,-7.3343 8.35543,-9.7645 11.79482,-14.5476 15.93664,-22.163 3.78865,-6.9661 9.19304,-19.4917 12.20573,-28.28893 0.96664,-2.82246 2.26916,-6.22948 2.89448,-7.5711 1.4821,-3.17972 4.2209,-7.87419 5.43272,-9.31204 0.92027,-1.09188 1.86026,-1.54781 1.56301,-0.75814 -0.0785,0.20879 -0.57999,1.53908 -1.11446,2.95679 -0.53448,1.41774 -1.67612,5.23882 -2.53698,8.4913 -1.91031,7.21782 -3.48809,11.84532 -6.63926,19.47202 -6.94619,16.8119 -12.35944,26.0361 -22.05732,37.5864 -3.55562,4.2348 -6.46099,7.0283 -11.47214,11.0304 -1.82943,1.461 -4.10773,3.4219 -5.06291,4.3574 -0.95518,0.9356 -3.07751,2.7928 -4.71631,4.1271 -1.63873,1.3344 -2.98264,2.5078 -2.98647,2.6076 -0.003,0.1 0.44208,0.3905 0.9909,0.646 0.54884,0.2556 4.59016,2.2138 8.98078,4.3516 13.37835,6.5141 41.21239,19.1427 41.55594,18.8545 0.17089,-0.1434 1.32023,-1.7887 2.5538,-3.656 z m -369.14661,3.1251 c 0,-0.1668 -0.47898,-0.3032 -1.06438,-0.3032 -0.58544,0 -1.06439,0.1366 -1.06439,0.3032 0,0.1668 0.47895,0.3033 1.06439,0.3033 0.5854,0 1.06438,-0.1366 1.06438,-0.3033 z m 4.92702,-3.177 c 2.77329,-0.9641 4.38635,-2.2456 4.38635,-3.4848 0,-0.5313 -0.23716,-1.1478 -0.58238,-1.5144 -0.743,-0.7889 -0.86525,-0.7772 -1.22283,0.1173 -0.68989,1.7257 -5.01364,3.521 -8.42151,3.4968 -1.93067,-0.011 -3.34406,-0.4292 -4.56766,-1.3428 -1.19076,-0.8892 -0.39374,-1.1195 2.03885,-0.5892 2.57478,0.5613 4.67332,0.4221 7.23662,-0.4803 1.70965,-0.6018 3.08092,-1.694 2.68055,-2.135 -0.122,-0.1343 -0.6708,-0.3383 -1.21962,-0.4532 -0.84564,-0.1768 -0.99785,-0.1272 -0.99785,0.3266 0,0.5045 -0.0316,0.5032 -0.5416,-0.023 -0.29785,-0.3071 -0.48687,-0.7209 -0.42005,-0.9194 0.0668,-0.1984 0.005,-0.9542 -0.13834,-1.6793 -0.25015,-1.2692 -1.16651,-10.1138 -1.47683,-14.255 l -0.15005,-2.0036 -2.60325,0.032 c -3.51516,0.044 -3.99831,-0.6373 -0.923,-1.3012 0.73178,-0.1582 2.40819,-0.5169 3.72534,-0.7977 1.31719,-0.2807 2.47058,-0.5624 2.56307,-0.6258 0.0924,-0.063 -0.19821,-1.209 -0.64585,-2.5457 -0.57244,-1.7089 -0.94706,-2.4303 -1.26219,-2.4303 -0.32894,0 -0.41585,0.1927 -0.32669,0.7242 0.2908,1.7336 -1.1859,2.6644 -2.20038,1.3868 -0.48838,-0.615 -0.49398,-0.6113 -1.03911,0.6819 -0.56605,1.3428 -1.5473,2.024 -2.38664,1.6569 -0.24047,-0.1051 -0.6694,-0.8082 -0.95305,-1.5624 -0.60217,-1.6009 -0.98536,-1.7278 -1.37472,-0.4549 -0.5662,1.851 -2.24214,2.0504 -3.58604,0.4264 -1.24586,-1.5056 -1.76685,-1.3068 -2.02963,0.7741 -0.11488,0.9102 -0.15005,1.8298 -0.0782,2.0436 0.17295,0.5139 2.45414,0.5222 2.62277,0.01 0.0866,-0.2633 0.24684,-0.1977 0.52478,0.2146 0.22009,0.3266 0.35072,0.7404 0.2904,0.9196 -0.0604,0.179 0.25945,2.5726 0.71061,5.3188 0.45113,2.7461 0.99754,6.3581 1.21425,8.0266 0.2168,1.6685 0.51649,3.9656 0.66623,5.1047 0.32089,2.4409 0.0127,3.2586 -1.49985,3.9788 -1.15464,0.5499 -1.40303,1.2137 -0.75804,2.026 1.14625,1.4434 3.2668,2.0223 7.53875,2.058 2.52562,0.02 3.41567,-0.1028 5.20684,-0.7257 z m 1.45929,-8.0436 c 0,-0.1668 -0.50891,-0.2853 -1.13092,-0.2634 l -1.1309,0.04 0.93134,0.2235 c 0.51222,0.1226 1.02113,0.2415 1.13089,0.2634 0.1098,0.023 0.19948,-0.097 0.19948,-0.2634 z m 27.99009,-7.2097 c 3.17406,-2.9566 5.62881,-5.4024 5.45499,-5.4352 -0.17361,-0.033 -3.13004,-0.116 -6.56934,-0.1854 -3.60915,-0.073 -6.55397,-0.2648 -6.96443,-0.4547 -0.54147,-0.2506 -0.77885,-0.236 -0.99491,0.061 -0.2214,0.3039 0.0818,0.5049 1.37642,0.9133 2.06315,0.6508 3.12368,1.714 3.12368,3.1311 0,0.7883 -0.27074,1.3476 -1.20089,2.4809 -1.46225,1.7815 -3.53915,3.0827 -6.52656,4.0889 l -2.25119,0.7581 4.39058,0.01 4.39061,0.01 5.77104,-5.3756 z m 75.52147,5.2859 c 0,-0.058 0.47898,-2.4668 1.06438,-5.3545 0.58541,-2.8877 1.06439,-5.2972 1.06439,-5.3545 0,-0.058 -7.1098,-0.1042 -15.79955,-0.1042 h -15.79949 l -2.92228,5.0797 c -1.60727,2.7937 -3.00633,5.2502 -3.10907,5.4587 -0.1482,0.3016 3.4599,0.3791 17.65745,0.3791 9.81428,0 17.84417,-0.047 17.84417,-0.1043 z m 68.53304,-0.4265 c -0.0858,-0.2919 -0.84409,-2.7142 -1.68544,-5.3829 l -1.52969,-4.8522 -14.3492,-0.078 c -7.89203,-0.043 -14.43257,0.025 -14.53452,0.1516 -0.10189,0.1267 -0.0259,2.4819 0.16885,5.234 0.19495,2.7521 0.36098,5.1061 0.36929,5.2313 0.007,0.125 7.14785,0.2273 15.86576,0.2273 14.97779,0 15.84207,-0.03 15.69495,-0.5307 z m 72.232,0.3065 c 0,-0.1235 -2.0643,-2.5798 -4.58734,-5.4588 l -4.5873,-5.2344 h -16.56737 c -9.11201,0 -16.56731,0.075 -16.56731,0.167 0,0.2086 4.42174,8.7807 5.11509,9.9164 l 0.50917,0.834 h 18.34252 c 10.08838,0 18.34254,-0.101 18.34254,-0.2242 z m -234.83018,-1.3342 c 2.72182,-0.4519 8.75774,-2.2579 10.38686,-3.1078 0.77481,-0.4043 1.5463,-1.028 1.7144,-1.3859 0.46592,-0.9922 0.23181,-1.9351 -0.55863,-2.2506 -0.56768,-0.2265 -0.86545,-0.1339 -1.59659,0.4944 -1.2585,1.0824 -6.44219,3.4522 -9.21732,4.214 -2.75503,0.7562 -6.64729,0.9018 -8.13046,0.3041 -0.55848,-0.2248 -1.43744,-0.8901 -1.95328,-1.478 -0.79129,-0.9018 -0.99332,-1.0037 -1.29286,-0.6522 -0.19539,0.2294 -0.39397,1.0275 -0.44158,1.7742 -0.0856,1.3414 -0.0739,1.3625 0.9778,1.7668 2.50687,0.964 5.63917,1.0634 10.11166,0.321 z m 281.05156,-0.9435 c 0.80157,-1.0024 5.40131,-9.5432 5.40131,-10.029 0,-0.2284 -0.25538,-0.6753 -0.56758,-0.993 -0.31214,-0.3177 -1.43642,-1.8817 -2.49835,-3.4754 l -1.93074,-2.8976 -4.83567,-2.4549 -4.83566,-2.455 -0.53933,1.2652 -0.53937,1.2651 0.67413,1.7372 c 0.37073,0.9554 0.56239,1.7371 0.42584,1.7371 -0.38309,0 -3.31407,-4.3317 -4.47069,-6.6073 -1.01974,-2.0063 -2.72875,-6.862 -3.09071,-8.7813 -0.10189,-0.5411 -0.38575,-1.1135 -0.63044,-1.272 -0.3847,-0.2492 -0.39654,-0.3781 -0.0874,-0.9523 0.29623,-0.5508 0.29697,-0.7064 0.005,-0.9125 -0.2489,-0.1754 -0.0408,-0.3934 0.70726,-0.741 0.58301,-0.2708 1.83838,-0.9404 2.78968,-1.4879 0.95127,-0.5476 2.02893,-1.08 2.39485,-1.1832 0.36586,-0.103 1.00722,-0.503 1.42519,-0.8886 0.68364,-0.6306 0.7581,-0.8782 0.74147,-2.4656 -0.0256,-2.4489 -0.80692,-4.1548 -2.66327,-5.8152 -1.44976,-1.2968 -3.30976,-2.2518 -4.38608,-2.2518 -0.37573,0 -0.16635,0.2749 0.71832,0.9427 1.79158,1.3524 3.13188,4.1817 2.70581,5.7116 -0.24736,0.8886 -0.57155,0.5387 -0.76266,-0.8236 -0.46296,-3.2996 -5.05633,-6.2706 -7.32914,-4.7405 -1.02909,0.6928 -1.03164,0.8627 -0.0204,1.3402 1.09629,0.5176 2.75508,2.7292 3.13724,4.1828 0.41246,1.5691 0.39472,2.2455 -0.0778,2.9574 -0.38041,0.5732 -0.39089,0.5705 -0.39915,-0.1032 -0.0229,-1.9242 -1.78993,-4.7447 -3.72207,-5.9431 -1.55191,-0.9626 -2.09541,-0.9858 -3.54812,-0.1507 -1.47853,0.8497 -1.44412,0.7613 -0.66564,1.7096 1.32462,1.6137 1.87859,3.5091 1.23879,4.2383 -0.22581,0.2571 -0.44492,0.025 -0.86483,-0.918 -0.31003,-0.6958 -0.95995,-1.5225 -1.4479,-1.8417 -0.79568,-0.5207 -0.92667,-0.5322 -1.29355,-0.1142 -0.22445,0.2559 -0.47,1.1275 -0.54548,1.937 -0.0756,0.8094 -0.31243,1.7007 -0.52655,1.9806 -0.24093,0.3151 -0.30406,0.67 -0.1659,0.9319 0.4442,0.8406 2.43056,2.655 3.50909,3.2053 1.19398,0.6092 1.19144,0.9643 -0.007,0.9643 -0.72002,0 -0.75089,0.056 -0.63022,1.1372 0.0699,0.6255 0.19789,2.5019 0.28494,4.1698 0.0867,1.668 0.46447,4.6702 0.83895,6.6717 0.3745,2.0016 0.69673,3.962 0.71607,4.3566 0.0295,0.6 2.01754,2.1754 12.14258,9.6223 6.65907,4.8977 12.23621,8.9077 12.39362,8.9111 0.15749,0 0.53173,-0.3008 0.83183,-0.676 z m -278.95501,-3.3964 c 2.26892,-0.7421 4.60659,-1.6291 5.19478,-1.9712 0.58825,-0.342 1.24682,-0.6217 1.46354,-0.6217 0.68678,0 0.74619,-0.5912 0.0935,-0.9302 -1.14967,-0.5969 -1.33909,-1.325 -0.82667,-3.1777 0.43111,-1.5586 0.43145,-1.7484 0.004,-3.2867 -0.24837,-0.8979 -0.71926,-2.0148 -1.04645,-2.4819 -0.32718,-0.4671 -0.89425,-1.4708 -1.26015,-2.2303 -0.36588,-0.7596 -0.98922,-1.5578 -1.38518,-1.7739 -1.48569,-0.8107 -2.31177,-3.1577 -1.41123,-4.0094 0.63052,-0.5965 2.55907,-0.1026 4.97003,1.2727 l 2.16862,1.237 0.89182,-0.5474 c 1.24821,-0.7661 3.01491,-2.5387 3.01491,-3.025 0,-0.2296 -0.72938,-0.6832 -1.67542,-1.042 -2.63588,-0.9996 -7.60485,-5.1406 -8.46055,-7.0507 -0.27515,-0.6142 -0.60141,-1.1879 -0.72504,-1.275 -0.59801,-0.4212 -5.92248,1.9404 -7.36658,3.2673 -0.52605,0.4833 -0.52623,0.4943 -0.0154,0.9439 0.3885,0.3421 0.41818,0.4549 0.11974,0.4549 -0.21832,0 -0.52768,-0.1494 -0.68766,-0.3315 -0.21042,-0.2397 -0.47865,-0.1913 -0.96991,0.1754 l -0.67902,0.507 0.92561,0.9262 c 1.19114,1.1919 0.9568,1.4671 -0.38654,0.4539 l -1.03901,-0.7836 -0.53505,0.6635 c -0.70526,0.8744 -1.65305,2.6879 -1.6543,3.1653 -5.3e-4,0.2088 0.15131,0.379 0.33771,0.379 0.18623,0 0.97504,0.4777 1.75283,1.0614 0.77781,0.5838 1.45026,1.0615 1.49438,1.0615 0.0441,0 0.16431,-0.5118 0.26701,-1.1373 0.52498,-3.196 3.10797,-7.0816 5.48093,-8.2449 1.47023,-0.7208 2.11907,-0.5736 1.05397,0.2392 -1.38061,1.0535 -3.63183,3.9426 -4.30327,5.5225 -1.05338,2.4785 -1.29482,4.3533 -1.29482,10.0544 0,2.8551 -0.0507,5.1333 -0.11235,5.0629 -0.15133,-0.1725 -0.92645,-7.2948 -1.01467,-9.3223 l -0.0703,-1.616 -1.99573,-0.8847 c -1.09765,-0.4866 -2.02565,-0.8852 -2.06226,-0.8858 -0.0367,-6e-4 -0.065,0.4424 -0.0629,0.9845 0.007,1.82 0.26078,2.3253 1.35751,2.6998 1.16921,0.3992 1.36734,0.8634 0.3685,0.8634 -0.3659,0 -0.66524,0.074 -0.66524,0.166 0,0.091 0.47896,1.1605 1.06438,2.3761 0.58541,1.2156 1.06438,2.4784 1.06438,2.8061 0,0.3277 0.11745,0.7295 0.26083,0.893 0.17044,0.1943 0.0441,1.004 -0.36399,2.3351 -0.34364,1.1208 -0.53752,2.0379 -0.43078,2.0379 0.21523,0 -0.27376,2.7922 -0.53117,3.0326 -0.0891,0.083 -0.4467,0.3865 -0.79427,0.6735 -0.62707,0.518 -0.62797,0.527 -0.11792,1.1787 0.83606,1.0685 1.97466,1.4592 4.28926,1.4718 1.80303,0.01 2.89022,-0.2208 6.30408,-1.3375 z m -9.61378,-22.0365 c -0.47564,-0.3472 -0.86481,-0.6861 -0.86481,-0.7531 0,-0.3899 1.04778,-0.01 1.72963,0.6269 0.99248,0.9271 0.3592,1.0195 -0.86482,0.126 z m 10.58506,-2.6826 c -0.21526,-0.155 -0.31063,-0.3743 -0.21197,-0.4869 0.25675,-0.2926 2.59901,0.1523 2.59901,0.4936 0,0.3674 -1.87534,0.3621 -2.38715,-0.01 z m -12.63097,21.5068 c 1.29941,-1.0188 1.54383,-1.6796 1.56585,-4.2329 0.0127,-1.4874 -0.15005,-1.996 -1.50484,-4.7005 -2.65691,-5.3037 -2.92866,-7.2016 -1.49827,-10.4638 1.2777,-2.914 3.45899,-5.1778 6.7129,-6.9668 2.79645,-1.5374 6.34384,-2.6336 7.47535,-2.31 0.35801,0.1024 1.16425,0.7754 1.79163,1.4956 0.62741,0.7201 1.97894,1.8858 3.0034,2.5905 1.0245,0.7045 2.04322,1.423 2.26387,1.5965 0.30908,0.2429 1.0724,-0.1457 3.32619,-1.6935 1.60878,-1.1049 3.07919,-2.26 3.26757,-2.5669 0.25492,-0.4152 0.37246,-2.9728 0.45949,-9.9978 0.0644,-5.1919 0.0665,-9.4398 0.004,-9.4398 -0.0617,0 -0.9869,0.458 -2.05606,1.0177 -1.74046,0.9111 -2.12359,1.2794 -3.66011,3.5181 -2.09036,3.0457 -4.7203,5.828 -7.73024,8.1782 -3.93927,3.0758 -9.58673,5.9805 -13.61788,7.0042 -1.48876,0.3781 -1.53014,0.418 -2.87813,2.7766 -0.97309,1.7027 -1.76559,2.6942 -2.74706,3.4367 -1.76058,1.3321 -2.73104,1.5474 -4.35067,0.9654 -0.70748,-0.2542 -2.20362,-0.6075 -3.32481,-0.7851 -1.12117,-0.1775 -2.70197,-0.6058 -3.5129,-0.9516 -1.53134,-0.6529 -4.01378,-2.9251 -4.29363,-3.93 -0.16889,-0.6065 -0.45114,-0.7556 -2.03381,-1.0747 l -0.96891,-0.1954 0.76933,1.7382 c 0.42314,0.9561 0.76583,2.0261 0.76153,2.3779 -0.007,0.5797 -0.0757,0.5518 -0.73176,-0.2981 -0.39817,-0.5157 -0.92305,-1.3589 -1.16638,-1.8738 -0.29271,-0.6193 -0.98865,-1.245 -2.0566,-1.8488 l -1.61415,-0.9128 -1.57162,0.9238 c -3.48949,2.051 -5.49843,4.5334 -7.68918,9.5014 -0.87366,1.9813 -1.66049,4.7221 -1.66049,5.7842 0,0.85 0.0326,0.8588 6.69289,1.8054 6.72304,0.9555 11.49309,1.9329 13.32231,2.7299 0.25866,0.1128 0.35492,-0.4831 0.39797,-2.4633 0.0313,-1.4365 0.18315,-2.7854 0.33768,-2.9975 0.36327,-0.4989 2.53711,-1.1942 2.91073,-0.931 0.15795,0.1113 0.28712,0.4573 0.28712,0.7691 0,0.7413 0.69837,1.5201 1.36306,1.5201 0.35206,0 0.65787,-0.3576 0.92209,-1.0783 0.3743,-1.021 0.45495,-1.0734 1.51648,-0.9856 1.05652,0.087 1.14369,0.167 1.51209,1.3816 0.54696,1.8032 1.11563,1.7114 1.937,-0.3127 0.5862,-1.4445 1.12237,-1.6889 1.89376,-0.8629 0.33127,0.3547 0.67754,0.6449 0.76945,0.6449 0.0919,0 0.20404,-0.5801 0.24887,-1.289 0.0787,-1.2394 0.11846,-1.2923 1.03594,-1.3799 1.16907,-0.1117 1.25128,6e-4 2.50611,3.427 1.28795,3.5167 1.31524,4.0832 0.2178,4.5175 -0.46516,0.1838 -0.92447,0.426 -1.02068,0.5376 -0.0963,0.1117 0.0102,1.1351 0.2364,2.2745 0.22621,1.1393 0.48328,2.7197 0.57132,3.512 0.0882,0.7923 0.22085,1.4404 0.29539,1.4404 0.0744,0 0.66481,-0.4151 1.31194,-0.9225 z m 306.0266,-3.2473 c -0.50112,-1.9416 -1.00035,-4.5873 -1.35917,-7.2024 -0.22889,-1.6679 -0.57553,-3.8514 -0.77033,-4.8522 -0.40577,-2.0841 -0.30199,-2.224 -1.71505,2.3113 -0.43539,1.3975 -1.12417,3.4089 -1.53062,4.4697 -0.62016,1.6188 -0.67783,1.9738 -0.35884,2.2082 1.1936,0.8771 5.46721,3.5961 5.65203,3.5961 0.12051,0 0.15727,-0.2387 0.0819,-0.5307 z m -229.4694,-5.1867 c 1.58944,-2.7277 2.85242,-5.0001 2.80656,-5.0499 -0.24265,-0.2633 -11.54143,-0.258 -11.65849,0.01 -0.0753,0.1695 0.50059,0.3778 1.33045,0.4805 2.11732,0.2621 2.56501,0.4906 2.93072,1.4969 0.5003,1.3765 -0.0553,2.5655 -1.70611,3.651 -4.09287,2.6909 -10.60506,3.1866 -12.16547,0.9258 -0.95194,-1.3792 -0.2097,-3.4252 1.37386,-3.7861 0.43094,-0.098 1.08958,-0.4071 1.46363,-0.6864 0.54393,-0.4062 0.66403,-0.7126 0.59982,-1.5305 -0.0443,-0.5624 -0.16974,-1.0198 -0.27979,-1.0163 -0.10961,0 -2.93782,0.01 -6.28461,0.01 h -6.08509 l -5.4772,5.0796 c -3.01246,2.7939 -5.48296,5.183 -5.49009,5.3093 -0.007,0.1264 8.03414,0.1947 17.86946,0.1516 l 17.88242,-0.078 z m 61.13992,4.8192 0.93984,-0.012 -0.3248,-4.7764 c -0.1786,-2.627 -0.33213,-4.8619 -0.34112,-4.9666 -0.0252,-0.297 -28.42779,-0.3189 -28.5888,-0.023 -0.22445,0.4137 -2.01267,9.549 -1.90737,9.7431 0.0703,0.1294 20.55435,0.1523 30.22225,0.033 z m 61.72589,-0.021 c 0,-0.1713 -1.27234,-2.7641 -2.82746,-5.7619 l -2.82743,-5.4505 h -3.00874 c -2.74951,0 -3.02296,0.051 -3.17346,0.5914 -0.47279,1.6977 -4.39443,2.9022 -8.69295,2.6701 -2.2161,-0.1197 -3.12346,-0.3056 -4.08643,-0.8368 -0.68078,-0.3757 -1.28908,-0.836 -1.35174,-1.0231 -0.17566,-0.5245 -6.76165,-0.2847 -6.76165,0.246 0,0.5508 2.67618,9.028 2.99821,9.4972 0.33876,0.4938 29.73165,0.5607 29.73165,0.068 z m 71.1675,0.038 c -0.13911,-0.1502 -3.60562,-2.7693 -7.70351,-5.8201 l -7.45069,-5.5468 -6.31504,-0.1274 -6.31501,-0.1275 -0.24409,0.7317 c -0.35181,1.0545 -2.16359,2.3054 -4.08793,2.8226 -3.22013,0.8652 -8.65936,0.4295 -9.95678,-0.7976 -0.20197,-0.1911 -0.49856,-0.9422 -0.65929,-1.6696 -0.16838,-0.762 -0.44789,-1.3222 -0.65972,-1.3222 -0.20198,0 -0.36755,0.1271 -0.36755,0.2828 0,0.1554 -0.25516,0.3751 -0.56702,0.4879 -0.49748,0.18 0.0324,0.8894 4.32135,5.7824 l 4.88844,5.5773 h 17.6848 c 10.50745,0 17.58221,-0.111 17.43202,-0.2734 z m -250.59172,-2.0729 c -0.061,-0.4609 -0.11289,-0.1557 -0.11495,0.6782 -0.003,0.8339 0.0482,1.2111 0.11127,0.8382 0.0631,-0.373 0.0646,-1.0554 0.003,-1.5164 z m 278.48543,-3.4166 c 3.73025,-9.7344 4.30553,-14.3511 2.6011,-20.8735 -0.51804,-1.9826 -0.60548,-2.1158 -1.94104,-2.959 -1.76121,-1.1118 -3.99587,-2.1775 -5.44329,-2.5959 -0.97677,-0.2823 -1.56367,-0.1883 -4.65669,0.7455 -1.94648,0.5876 -3.85322,1.1463 -4.23713,1.2414 -0.42911,0.1064 -0.81607,0.4957 -1.00418,1.0107 -0.16862,0.4608 -0.57265,0.9888 -0.89844,1.1734 -0.32589,0.1845 -1.32184,0.7576 -2.21324,1.2734 -0.89139,0.5157 -2.38816,1.1586 -3.32619,1.4286 -2.91917,0.8403 -2.8772,0.6093 -1.02354,5.6372 0.88511,2.4009 1.79533,4.8772 2.02265,5.5026 0.50838,1.3989 0.88765,1.4637 0.88794,0.1516 0,-1.4342 1.43421,-4.6648 2.95696,-6.662 0.72714,-0.9538 1.44871,-2.1479 1.60337,-2.6536 0.28332,-0.9261 0.84182,-1.2039 1.1772,-0.5854 0.0996,0.1836 -0.0908,1.3096 -0.42375,2.5019 -1.29085,4.6259 -1.34532,4.8886 -1.03911,5.0049 0.16204,0.061 -0.094,0.57 -0.57026,1.1298 -0.63816,0.7503 -0.76659,1.0571 -0.4889,1.1683 5.18439,2.0745 6.92437,3.1118 9.29644,5.5423 0.75979,0.7785 1.6829,1.9698 2.05136,2.6473 1.1964,2.1996 2.81072,4.4488 3.01587,4.202 0.10984,-0.1326 0.85394,-1.9468 1.65287,-4.0317 z m -313.8491,3.26 c -0.0468,-0.3754 -0.23461,-0.6687 -0.41766,-0.652 -0.18292,0.018 -0.72179,0.061 -1.19744,0.1003 l -0.86483,0.07 1.06439,0.574 c 1.372,0.7399 1.51807,0.7304 1.41554,-0.093 z m 74.87189,-2.4995 c -0.0597,-0.5824 -0.21537,-0.9838 -0.34568,-0.8919 -0.27644,0.1947 -0.31951,1.4528 -0.0597,1.7487 0.3799,0.4329 0.5096,0.1591 0.40554,-0.8568 z m 11.53296,-2.5497 c -0.0974,-0.3503 -0.30193,-0.637 -0.45407,-0.637 -0.15227,0 -0.20402,0.2161 -0.11506,0.4797 0.089,0.2639 0.16159,0.7005 0.16159,0.9704 0,0.3568 0.0799,0.3998 0.29255,0.1575 0.1609,-0.1831 0.21265,-0.62 0.11506,-0.9704 z m -8.3485,0.5003 c 0.34718,-0.3212 0.38199,-0.9357 0.22758,-4.0182 l -0.18223,-3.6391 -0.0479,3.0325 c -0.0522,3.3387 -0.3642,4.4132 -1.37255,4.7331 -0.6304,0.2002 -0.623,0.2115 0.15069,0.2404 0.44767,0.018 0.99841,-0.1405 1.22379,-0.3489 z m -104.70016,-2.2745 c 0.65787,-2.5459 1.91181,-5.8282 2.70584,-7.0827 0.46393,-0.7331 1.42797,-2.2881 2.14233,-3.4556 1.58123,-2.5844 2.62372,-3.7403 4.57837,-5.0766 l 1.49453,-1.0217 -2.95805,-1.7238 c -1.62695,-0.9481 -3.93291,-2.5273 -5.12441,-3.5092 l -2.16635,-1.7853 -2.49034,-0.1266 c -2.11811,-0.1076 -2.70016,-0.2568 -3.89403,-0.9998 -2.85321,-1.7754 -3.68429,-5.5305 -1.86752,-8.4383 l 0.53217,-0.8518 -1.06473,-2.9417 c -1.6255,-4.4911 -2.05524,-7.0492 -2.02255,-12.0397 0.0229,-3.5131 0.14392,-4.7426 0.70136,-7.1266 0.37044,-1.5845 0.64102,-2.9222 0.60125,-2.9727 -0.15668,-0.1988 -4.09723,3.9631 -5.89093,6.2223 -2.02308,2.5481 -6.35167,8.6319 -6.72432,9.451 -0.15668,0.3443 0.11793,1.1716 0.91809,2.7657 0.6279,1.2509 1.64017,3.298 2.24949,4.5489 1.59692,3.2786 4.23103,7.7093 6.03144,10.1453 2.17381,2.9413 8.79305,9.6167 12.17527,12.2785 1.55605,1.2247 2.77244,2.2913 2.7031,2.3704 -0.4103,0.4676 -8.49458,-5.1983 -11.54463,-8.091 -3.20314,-3.0381 -7.97901,-8.543 -9.17713,-10.5782 -1.43253,-2.4333 -3.46262,-7.0766 -4.09739,-9.3716 -0.2443,-0.883 -0.52713,-1.6055 -0.62864,-1.6055 -0.32231,0 -2.04942,4.0282 -2.47042,5.7619 -0.87343,3.597 -0.85338,4.0594 0.23564,5.4331 0.54007,0.6813 0.90767,1.2386 0.81694,1.2386 -0.26192,0 -2.09958,-1.1656 -2.2703,-1.44 -0.0851,-0.1368 -0.72096,-0.7698 -1.41317,-1.4069 -1.17598,-1.0824 -4.994668,-5.9811 -4.994668,-6.4072 0,-0.1062 -0.4908,-1.134 -1.09064,-2.2848 -1.3861,-2.659 -2.44781,-5.6307 -2.99972,-8.3961 -0.55547,-2.7833 -0.5463,-3.1127 0.0864,-3.1127 0.35487,0 0.67986,-0.4089 1.02451,-1.2889 0.75802,-1.9355 2.54633,-4.3335 4.392228,-5.8898 0.90598,-0.7639 1.63348,-1.5423 1.61665,-1.7298 -0.0178,-0.1877 -0.23284,-1.45906 -0.48011,-2.82567 -0.47013,-2.59885 -0.62575,-6.44447 -0.28609,-7.07079 0.13705,-0.2529 0.0446,-0.31232 -0.30077,-0.19245 -0.95979,0.33243 -7.960798,1.40521 -9.181078,1.4068 -1.41118,0.002 -1.59678,0.19517 -2.19419,2.28377 -0.4962,1.73484 -1.77117,3.61459 -3.89314,5.73974 -0.80436,0.8056 -1.4849,1.4824 -1.51233,1.5041 -0.0275,0.02 0.12355,1.8788 0.33538,4.1271 0.21196,2.2482 0.5005,9.4782 0.64135,16.0665 0.34037,15.9203 0.84436,21.978 2.40255,28.8776 0.29094,1.2882 0.52898,2.4152 0.52898,2.5043 0,0.089 0.48052,0.3812 1.06781,0.649 1.26662,0.5776 2.05036,1.7174 2.17092,3.1573 0.0825,0.9845 0.19438,1.0936 1.94017,1.892 1.66637,0.762 2.12064,0.8385 4.51681,0.7615 l 2.664088,-0.086 0.18036,-1.213 c 0.52656,-3.5414 0.81237,-9.7689 0.6446,-14.0458 -0.12404,-3.1613 -0.0907,-4.7702 0.10419,-5.0378 0.2048,-0.2812 0.19794,-1.0417 -0.0254,-2.6688 -0.34745,-2.5471 -0.22469,-3.2667 0.55772,-3.2667 1.93604,0 3.0141,7.8405 2.44325,17.7695 -0.16381,2.8512 -0.41881,5.9097 -0.56641,6.7966 -0.14749,0.8869 -0.22545,1.6614 -0.17296,1.7211 0.0525,0.06 2.77716,0.2454 6.05498,0.4124 8.1394,0.415 17.24095,1.3745 19.92979,2.1009 1.77512,0.4796 1.996,0.4008 2.31268,-0.8247 z m 108.55875,0.3032 c -0.0672,-0.125 -0.19925,-2.2011 -0.29407,-4.6134 -0.0944,-2.4123 -0.21151,-4.4313 -0.2603,-4.4867 -0.20652,-0.2353 -0.44563,4.541 -0.29471,5.886 0.32553,2.9009 0.43573,3.4416 0.70155,3.4416 0.14797,0 0.21492,-0.1024 0.14751,-0.2273 z m 196.37755,-0.7581 c -0.48421,-2.2007 -0.96994,-6.8281 -0.97087,-9.2494 0,-2.0877 -0.089,-2.8052 -0.34429,-2.8052 -0.98546,0 -3.73773,1.0792 -5.39666,2.116 -1.03488,0.6467 -2.54441,1.4309 -3.3546,1.7426 l -1.47302,0.5668 5.61641,4.1454 c 3.08899,2.2799 5.71916,4.15 5.84475,4.1557 0.1255,0.01 0.16091,-0.2966 0.0783,-0.6719 z m -244.84389,-0.5409 c 0.15743,-0.2903 -2.95986,-2.1126 -3.61412,-2.1126 -0.54272,0 -0.11793,0.6277 1.21811,1.7996 1.309,1.1484 1.90108,1.2256 2.39601,0.313 z m 164.93257,0.4837 c 2.23627,-0.4877 3.63408,-1.1873 3.63408,-1.819 0,-0.5387 -1.45296,-1.9377 -2.24894,-2.1654 -0.86553,-0.2476 -1.11984,-1.0895 -1.61111,-5.3334 -0.23824,-2.0576 -0.55708,-4.1949 -0.70861,-4.7496 -0.23429,-0.858 -0.16883,-1.2803 0.44071,-2.8278 0.77939,-1.9793 0.7562,-2.5726 -0.17044,-4.3629 -0.89386,-1.7266 -2.05093,-1.9593 -4.08341,-0.8214 -2.82638,1.5825 -3.21698,4.1254 -1.00211,6.5242 l 0.77506,0.8394 -0.0352,5.3774 c -0.0204,2.9576 -0.12164,5.5822 -0.22758,5.8324 -0.10621,0.2502 -0.81148,0.7961 -1.56793,1.2131 -0.75647,0.4169 -1.41846,0.9194 -1.47108,1.1166 -0.3361,1.259 4.64896,1.9675 8.27688,1.1764 z m -136.13874,-0.6569 c -0.18632,-0.212 -0.99222,0.2179 -0.99222,0.5298 0,0.155 0.24966,0.1291 0.55497,-0.057 0.30528,-0.1863 0.50201,-0.3989 0.43725,-0.4728 z m -12.72908,-1.207 c 0.0576,-0.061 -0.0136,-0.2852 -0.16271,-0.4977 -0.14707,-0.2124 -0.34836,-0.7724 -0.4474,-1.2442 -0.15274,-0.7272 -0.0265,-1.0282 0.82811,-1.9751 0.55449,-0.6144 1.42346,-1.4707 1.93101,-1.9028 l 0.9228,-0.7857 -0.49755,-1.2575 c -0.27364,-0.6916 -0.62904,-1.2546 -0.78976,-1.251 -0.16068,0 -3.07094,2.0883 -6.46719,4.6327 l -6.175,4.626 5.3767,-0.1166 c 2.95719,-0.064 5.42369,-0.1668 5.48115,-0.2278 z m 140.58472,-1.131 c 0.39736,-0.2812 0.91231,-0.5112 1.14448,-0.5112 0.64095,0 1.19324,-1.8753 1.19324,-4.0518 0,-1.497 -0.0974,-1.9912 -0.42091,-2.1326 -0.6113,-0.2673 -12.83339,-0.2265 -12.9554,0.044 -0.0567,0.1251 0.42906,1.8992 1.07921,3.9424 l 1.18201,3.715 3.22919,0.01 c 1.7761,0 3.40882,0.1354 3.62836,0.2952 0.28484,0.2075 0.51339,0.1353 0.79829,-0.2516 0.21969,-0.2983 0.72422,-0.7724 1.12153,-1.0535 z m -67.1481,1.1192 c 0.91888,-0.2095 0.91921,-0.2104 1.85678,-5.042 l 0.51492,-2.6536 h -11.87895 l -11.8789,0.01 -1.76709,3.1031 c -0.97191,1.7066 -1.97356,3.4784 -2.22591,3.9371 l -0.45881,0.8339 h 12.50392 c 6.87709,0 12.87744,-0.085 13.33404,-0.1891 z m -60.65577,-0.8992 c 0.54797,-0.5255 0.81866,-1.0603 0.81866,-1.6174 0,-1.3026 -0.31002,-1.3401 -0.91516,-0.1105 -0.30601,0.6218 -0.96149,1.4416 -1.45657,1.8219 l -0.9001,0.6913 h 0.81723 c 0.49098,0 1.14408,-0.3135 1.63594,-0.7851 z m 5.99719,-3.4925 3.715,-3.4555 -5.50023,-0.1516 c -5.01725,-0.1382 -5.53275,-0.2025 -5.87087,-0.7302 -0.35267,-0.5504 -0.38006,-0.5361 -0.56318,0.2956 -0.11506,0.5225 -0.0831,0.9157 0.0792,0.9775 0.14956,0.057 0.99008,0.6323 1.86799,1.279 2.27962,1.6791 2.90799,3.3298 2.01262,5.2868 -0.38885,0.8498 -0.38562,0.8698 0.0683,0.4229 0.26189,-0.2579 2.14796,-2.0239 4.1912,-3.9245 z m 111.63785,4.028 c 0,-0.1373 -0.52469,-1.8773 -1.16598,-3.8666 l -1.16603,-3.6169 -1.36192,0.011 c -0.74902,0.01 -6.09773,0.041 -11.88594,0.076 l -10.524,0.064 0.14048,1.7438 c 0.0774,0.9591 0.21218,2.6649 0.30049,3.7908 l 0.16,2.047 h 12.75146 c 7.01331,0 12.75146,-0.1123 12.75146,-0.2497 z m 28.63808,-0.4733 c 0.0181,-0.02 -0.73477,-1.5022 -1.67279,-3.2953 l -1.70551,-3.26 h -2.91735 -2.91737 v 0.7755 c 0,0.4265 0.13412,1.3833 0.29843,2.1262 0.22013,0.9963 0.45563,1.3958 0.89713,1.5221 0.32927,0.094 1.04578,0.6931 1.59219,1.3309 l 0.99357,1.1595 2.69946,-0.1616 c 1.48476,-0.089 2.71426,-0.1777 2.73224,-0.1972 z m 29.37094,-0.1292 c 0,-0.135 -1.23993,-1.6362 -2.7554,-3.3358 l -2.7555,-3.0902 h -12.83961 c -11.3283,0 -12.82158,0.054 -12.68585,0.4569 0.0846,0.2511 0.82287,1.7523 1.64054,3.3358 l 1.48678,2.8791 h 13.9545 c 7.67501,0 13.95454,-0.1106 13.95454,-0.2459 z m -179.2651,-0.4253 c 1.14627,-0.3914 3.10923,-2.2849 3.10923,-2.9991 0,-0.2358 -0.52982,-0.793 -1.17733,-1.2388 -1.16288,-0.8004 -1.18176,-0.803 -1.53007,-0.2042 -0.29678,0.5101 -0.33867,-0.5148 -0.26437,-6.4656 0.0701,-5.612 -0.25447,-13.473 -0.56861,-13.7765 -0.0286,-0.028 -0.68057,-0.1469 -1.44889,-0.2645 l -1.39703,-0.2147 v 0.9439 c 0,0.5192 -0.28196,1.8636 -0.62652,2.9877 -0.34462,1.124 -0.71538,2.8614 -0.82395,3.8609 -0.10848,0.9994 -0.33551,2.0087 -0.50436,2.2428 -0.18995,0.2637 -0.30444,1.6488 -0.30031,3.6391 0.007,3.7822 0.48503,5.8955 1.8554,8.2163 0.51257,0.868 0.93194,1.6362 0.93194,1.7072 0,0.3274 -1.62502,-0.877 -2.05037,-1.5197 l -0.47755,-0.7216 -1.54447,1.5248 c -0.84947,0.8386 -1.44819,1.6293 -1.3305,1.757 0.7383,0.8013 6.2906,1.1588 8.14776,0.5246 z m -12.4574,-6.615 c 2.48799,-1.8681 4.54755,-3.4198 4.57685,-3.4482 0.0293,-0.029 0.13571,-0.9678 0.23625,-2.0874 l 0.18268,-2.0357 -0.8255,0.328 c -1.12053,0.4452 -14.14917,7.7928 -14.14917,7.9796 0,0.082 0.72607,0.4504 1.61349,0.8191 0.88744,0.3688 1.92752,1.0497 2.31132,1.5131 0.82708,0.9987 0.24198,1.2953 6.0538,-3.0685 z m -36.98029,-0.6198 1.85554,-2.1438 -2.26181,0.2483 c -2.85905,0.3141 -9.10131,0.321 -11.69834,0.011 l -1.98581,-0.2358 0.77903,0.9267 c 1.6137,1.9196 5.4632,3.248 9.58604,3.308 l 1.86981,0.027 1.85554,-2.1439 z m 255.84465,1.257 c 0,-0.1541 0.77528,-0.7292 1.72286,-1.2777 l 1.72281,-0.9974 -0.95478,-1.9823 c -1.19128,-2.4734 -3.09569,-5.764 -3.33877,-5.7692 -0.10031,0 -0.71469,1.2761 -1.36494,2.8405 -0.65026,1.5644 -1.4462,3.1452 -1.76875,3.5128 -0.32251,0.3676 -0.51773,0.7466 -0.43378,0.8423 0.29382,0.3348 4.01811,3.0612 4.21575,3.0862 0.10962,0.011 0.19972,-0.101 0.19972,-0.2552 z m -18.89285,-4.4202 v -3.7907 h -9.64183 -9.64184 l 3.18026,3.6339 3.18024,3.6338 6.39507,0.087 c 3.51727,0.048 6.42502,0.1182 6.46158,0.1568 0.0365,0.039 0.0665,-1.6357 0.0665,-3.7206 z m -151.99202,3.0148 6.73453,-0.1541 1.84707,-3.2338 c 1.01591,-1.7786 1.84706,-3.3449 1.84706,-3.4806 0,-0.1358 -4.72982,-0.2405 -10.51077,-0.2328 -5.78093,0.01 -10.51001,0.1112 -10.50906,0.2308 0.001,0.1191 0.2397,0.6263 0.53046,1.1267 0.78642,1.3534 0.70856,3.314 -0.18564,4.672 -0.39475,0.5995 -0.80363,1.1591 -0.90857,1.2435 -0.10507,0.084 0.84663,0.115 2.11463,0.068 1.26811,-0.047 5.33617,-0.1544 9.04016,-0.2395 z m 109.7962,-0.9678 c -3.35215,-6.5665 -3.83938,-7.0665 -4.89659,-5.0244 -0.57459,1.1098 -0.58293,1.2379 -0.24889,3.8067 l 0.34561,2.6582 h 2.76768 2.76761 z m -51.39015,-0.076 c -0.0293,-0.417 -0.13003,-1.9536 -0.22376,-3.4147 l -0.17043,-2.6567 -12.01676,0.079 -12.01676,0.079 -0.59007,2.7294 c -0.32458,1.5011 -0.59398,3.0377 -0.59871,3.4146 l -0.007,0.6852 12.83916,-0.079 12.83917,-0.079 -0.0529,-0.7582 z m 39.65566,-0.7182 c -0.0397,-1.2935 -0.18088,-1.6285 -1.13504,-2.7054 -0.75945,-0.857 -1.13864,-1.5807 -1.25222,-2.3902 -0.15636,-1.1156 -0.62706,-1.6455 -0.62706,-0.7063 0,0.5125 0.37731,0.4896 -7.51726,0.4554 -2.89048,-0.011 -5.25484,0.085 -5.25406,0.216 0,0.1312 0.42163,1.5351 0.93549,3.1196 0.51383,1.5845 0.98925,3.0539 1.0565,3.2652 0.0953,0.2995 1.63514,0.3664 6.9808,0.3032 l 6.85862,-0.081 z m -115.83923,1.191 c 0,-0.3201 -0.51069,-0.4545 -0.66256,-0.1747 -0.0921,0.1695 0.0204,0.3081 0.2476,0.3081 0.22803,0 0.41485,-0.06 0.41485,-0.1336 z m 6.21122,-0.7744 c 0.8627,-1.1685 1.04598,-1.8622 0.72983,-2.7628 -0.24634,-0.7017 -0.25549,-0.6947 -0.27177,0.2094 -0.0113,0.6418 -0.26754,1.19 -0.81518,1.7461 -0.76348,0.7753 -1.06814,1.7157 -0.55587,1.7157 0.13344,0 0.54419,-0.4086 0.91299,-0.9081 z m 174.41883,0.7119 c 0.57973,-0.1768 0.54916,-0.2382 -0.52052,-1.0453 -0.62498,-0.4715 -1.1543,-0.8286 -1.17627,-0.7935 -0.0229,0.035 -0.11414,0.5074 -0.20447,1.0494 -0.15342,0.9174 -0.11439,0.9854 0.5605,0.9815 0.39883,0 1.00221,-0.089 1.34091,-0.1922 z m 16.54742,-1.9984 c 0.80494,-0.3342 1.91329,-0.6738 2.46308,-0.7548 1.21215,-0.1786 1.59868,-0.6897 0.52154,-0.6897 -1.18306,0 -2.99474,-1.2377 -3.55532,-2.4289 -0.66019,-1.403 -0.62198,-2.4264 0.13822,-3.7034 l 0.63205,-1.0614 -3.09345,-1.396 -3.09346,-1.396 -0.39913,0.6714 c -0.21945,0.3693 -0.84717,1.2313 -1.39477,1.9156 l -0.9956,1.2441 0.55644,0.574 c 0.79828,0.8233 3.30132,5.1869 3.92215,6.8375 l 0.52732,1.402 1.15367,-0.3034 c 0.63444,-0.1668 1.81218,-0.5769 2.61711,-0.911 z m -13.837,-0.3066 c 0,-0.1886 0.67388,-1.9885 1.49755,-4.0003 1.04394,-2.5496 1.81654,-4.0022 2.55022,-4.7949 0.579,-0.6255 1.15964,-1.1372 1.29033,-1.1372 0.13072,0 0.43417,-0.3419 0.67437,-0.7597 0.56533,-0.9833 0.39521,-1.2074 -2.28562,-3.0116 -1.16766,-0.7857 -2.18895,-1.5503 -2.26963,-1.699 -0.0806,-0.1489 0.33685,-0.8051 0.9277,-1.4586 1.27249,-1.4074 1.39175,-2.4413 0.4106,-3.5595 -0.73273,-0.835 -3.72816,-2.5512 -4.45354,-2.5516 -0.58388,-3e-4 -0.85356,1.1691 -0.63267,2.7434 0.11052,0.7887 0.0674,1.1987 -0.12573,1.1987 -0.20674,0 -0.23922,0.8353 -0.10871,2.8178 0.20675,3.1425 -0.034,3.7595 -1.35414,3.4719 -0.59806,-0.1305 -0.66916,-0.065 -0.53738,0.495 0.0837,0.3549 0.1541,2.7605 0.15659,5.3458 l 0.004,4.7005 1.92808,1.397 c 1.87276,1.3569 2.32723,1.5136 2.32723,0.8023 z m -252.58162,-0.8507 c 9.02959,-1.1184 17.61635,-5.1295 23.94101,-11.1834 3.75717,-3.5963 7.667,-10.8757 8.88819,-16.5481 1.86696,-8.6723 -0.54831,-18.2069 -6.6273,-26.16202 -2.04055,-2.67035 -2.27341,-2.77154 -3.59371,-1.56236 -2.33194,2.13575 -6.82372,4.15223 -11.73516,5.26829 -9.12843,2.0743 -19.78553,1.84954 -30.48466,-0.6429 -7.27467,-1.69472 -8.85243,-1.98696 -9.11452,-1.68822 -0.14139,0.16114 0.14315,1.41384 0.69634,3.06619 1.84596,5.51292 2.37355,9.78622 1.75322,14.20082 -0.59356,4.2239 -1.96982,7.1585 -5.53316,11.7984 -1.38705,1.8061 -1.79542,2.5511 -1.79542,3.2755 0,0.8845 -0.0677,0.9469 -1.19743,1.1031 -1.52363,0.2106 -2.31565,0.6843 -3.88375,2.3226 -1.36038,1.4213 -0.53007,4.3632 1.6298,5.7745 0.99362,0.6493 1.28621,0.6834 4.91491,0.5728 3.38008,-0.1028 3.75944,-0.067 3.06011,0.2862 -0.43907,0.2222 -0.94798,0.4099 -1.13092,0.4174 -0.71095,0.029 -0.24965,0.5372 1.86267,2.0508 2.90064,2.0787 7.15966,4.3551 8.53982,4.5645 0.6084,0.092 1.40555,0.4104 1.77142,0.7067 0.76673,0.6211 5.79431,1.9442 8.91423,2.3459 3.03738,0.3911 6.14454,0.4024 9.12431,0.033 z m -35.3348,-12.7298 c 0,-0.1723 0.17196,-0.7818 0.38188,-1.3547 l 0.38187,-1.0416 -0.91722,-0.1959 c -0.50448,-0.1078 -1.1553,-0.125 -1.44629,-0.038 -0.79612,0.2372 -0.66422,-0.6518 0.14901,-1.0041 0.73339,-0.3178 2.41555,-2e-4 4.00296,0.7556 1.34561,0.6408 1.20472,1.5146 -0.1717,1.0647 -0.71087,-0.2323 -0.81949,-0.1575 -1.35948,0.9376 -0.56357,1.1428 -1.02106,1.5357 -1.02106,0.877 z m 33.97838,-4.042 c -0.56579,-1.6803 0.0537,-4.0008 1.5867,-5.9441 1.22609,-1.5542 2.36389,-2.4379 3.13874,-2.4379 0.74141,0 0.4144,0.7405 -0.72865,1.6499 l -1.1208,0.8918 1.97901,0.7113 c 4.12334,1.482 8.23798,1.6071 12.72071,0.3869 2.99471,-0.8151 5.3852,-2.1132 6.9357,-3.7661 0.71722,-0.7645 1.38144,-1.3901 1.47602,-1.3901 0.50556,0 0.0299,1.1088 -1.02889,2.3989 -2.10147,2.5604 -5.58619,4.2181 -10.21569,4.8596 -3.82928,0.5306 -7.31684,-0.072 -10.46151,-1.8083 -0.88461,-0.4883 -1.71094,-0.8156 -1.83632,-0.7273 -0.46206,0.3255 -1.63292,2.9167 -1.94217,4.2983 -0.23716,1.0593 -0.36587,1.2839 -0.50285,0.8771 z m 27.22379,-18.9962 c 0,-0.1668 0.11058,-0.3032 0.24583,-0.3032 0.43413,0 1.88954,-1.5606 2.30089,-2.4672 0.31623,-0.6969 0.34029,-1.1258 0.11608,-2.0738 -0.15536,-0.6575 -0.42067,-1.2927 -0.58963,-1.4117 -0.18578,-0.131 -0.96373,0.6131 -1.9674,1.8813 -0.91309,1.1537 -1.74878,1.9968 -1.8571,1.8733 -0.57055,-0.6502 2.53202,-5.0802 3.55802,-5.0802 0.78693,0 1.54826,1.027 1.8824,2.5393 0.3242,1.4673 0.17501,2.4086 -0.57598,3.6361 -0.73707,1.2046 -3.11313,2.2778 -3.11313,1.4061 z m -9.04727,-5.307 c 0,-0.4718 0.15079,-0.7581 0.39915,-0.7581 0.24836,0 0.39914,0.2863 0.39914,0.7581 0,0.4717 -0.1508,0.7582 -0.39914,0.7582 -0.24837,0 -0.39915,-0.2865 -0.39915,-0.7582 z m 3.10446,-2.7799 c -0.32892,-0.3749 -0.18062,-1.2478 0.24354,-1.4333 0.76627,-0.3351 1.17568,-0.1918 1.17568,0.4118 0,0.7494 -1.01614,1.4808 -1.41918,1.0215 z m 20.4312,40.9132 4.24363,-2.6518 1.40174,-3.6391 c 1.52861,-3.9685 1.6561,-4.6242 0.95441,-4.9078 -1.33236,-0.5385 -1.81525,-1.916 -0.89998,-2.5674 0.46047,-0.3278 0.47047,-0.4674 0.13639,-1.898 -0.19835,-0.8493 -0.3622,-2.3289 -0.36394,-3.288 -0.002,-0.959 -0.10417,-1.7437 -0.22759,-1.7437 -0.33445,0 -2.74835,0.9742 -5.89578,2.3794 l -2.79405,1.2474 -0.0309,7.6635 c -0.0309,7.6417 -0.0418,7.7638 -1.04022,11.3784 -0.10374,0.3753 -0.0848,0.6816 0.042,0.6806 0.12679,0 2.14023,-1.195 4.47426,-2.6535 z m 31.04809,0.305 c 0.33099,-0.481 0.32158,-0.4917 -0.10054,-0.1144 -0.2561,0.2291 -0.46566,0.4677 -0.46566,0.5307 0,0.2496 0.21832,0.089 0.56615,-0.4162 z m -2.51314,-0.4359 c -0.0851,-0.242 -0.14797,-0.17 -0.16068,0.1829 -0.0113,0.3196 0.0513,0.4988 0.14002,0.398 0.0885,-0.101 0.0976,-0.3623 0.0204,-0.5813 z m 123.86401,-1.833 c -0.19744,-0.2249 -0.23207,-0.1066 -0.11619,0.3978 0.0937,0.4101 0.21492,0.5476 0.28118,0.3205 0.064,-0.2186 -0.009,-0.542 -0.16499,-0.7183 z m 14.02341,0.6767 h 10.27632 l -2.66416,-3.0362 -2.66416,-3.0363 -10.15007,0.08 -10.15004,0.079 1.37605,2.6101 c 1.88055,3.5672 1.98683,3.6939 2.91982,3.4812 0.42889,-0.098 5.40425,-0.1779 11.05624,-0.1779 z m -135.76633,-0.4548 c 1.07667,-0.5127 3.28516,-0.6146 3.28516,-0.1516 0,0.6319 0.57176,0.2231 3.49755,-2.5019 l 3.01205,-2.8052 -9.1081,-0.08 -9.10817,-0.08 -4.05878,3.0301 -4.05873,3.03 7.7919,0.01 c 6.33381,0 7.97059,-0.079 8.74712,-0.4484 z m 49.42434,-1.906 c 0.24632,-1.2985 0.51698,-2.6632 0.60172,-3.0326 l 0.1541,-0.6717 h -9.01181 l -9.01175,0.01 -1.59659,2.7666 c -0.87811,1.5216 -1.63648,2.8841 -1.68526,3.0278 -0.049,0.1437 4.45419,0.2612 10.00662,0.2612 h 10.09532 z m 46.9946,2.0184 c 0,-0.1884 -0.38442,-1.553 -0.85421,-3.0326 l -0.85426,-2.6901 h -9.99069 -9.99067 l 0.17769,2.6535 c 0.0978,1.4594 0.18836,2.8241 0.20107,3.0326 0.0318,0.5217 21.31091,0.5583 21.31091,0.037 z m -111.42791,-3.5393 c 1.61553,-1.2097 1.30803,-1.167 -1.46354,0.2033 -0.69514,0.3437 -1.26395,0.7435 -1.26395,0.8884 0,0.5826 0.39211,0.6438 1.04314,0.1625 0.37757,-0.279 1.13553,-0.8435 1.68435,-1.2544 z m 238.87474,-0.6627 c 8.15111,-2.3718 15.23485,-6.7145 20.30324,-12.4471 1.42695,-1.6139 2.59391,-3.0567 2.59328,-3.2062 0,-0.1495 -0.62925,-0.3099 -1.397,-0.3564 -0.83533,-0.051 -1.97978,-0.4073 -2.84995,-0.8881 -1.60709,-0.888 -1.41526,-1.2448 0.39061,-0.7266 2.12894,0.611 4.20438,0.4249 6.04613,-0.5419 1.76788,-0.9281 2.35078,-1.5213 3.5333,-3.5958 0.8452,-1.4828 0.80299,-2.9429 -0.12664,-4.3757 -0.29675,-0.4574 -0.53954,-0.953 -0.53954,-1.1012 0,-0.3564 -1.74489,-1.2034 -2.97115,-1.4425 -1.06003,-0.2065 -3.54219,0.4817 -4.71635,1.3079 -0.38201,0.2688 -1.08372,0.9003 -1.55937,1.4034 -0.84766,0.8965 -0.86481,0.9008 -0.86481,0.2165 0,-0.384 -0.29827,-0.9656 -0.6629,-1.2925 -0.83785,-0.7511 -1.3106,-2.6002 -2.00218,-7.8327 -1.06641,-8.06714 -1.32785,-9.35838 -2.021,-9.97973 -0.70658,-0.63342 -6.35944,-3.22851 -10.08227,-4.62857 -11.98222,-4.50612 -32.41375,-7.07781 -44.01209,-5.53985 -1.96097,0.25999 -4.29597,0.6373 -5.18885,0.83844 l -1.6235,0.36568 -1.38311,2.37996 c -3.98679,6.86035 -5.45171,15.57267 -3.82705,22.76067 0.80962,3.5819 2.08359,6.9625 3.78169,10.0353 l 1.38689,2.5096 1.61737,0.3682 c 2.51685,0.5731 3.93962,1.0793 5.36228,1.9078 1.63812,0.9541 2.46253,1.8313 2.93684,3.125 0.46998,1.2819 0.46376,1.8772 -0.0313,2.9582 -0.21832,0.4778 -0.39749,0.9019 -0.39749,0.9425 0,0.1541 3.12981,2.2512 4.69314,3.144 1.40177,0.8005 7.77288,3.4816 7.83501,3.2971 0.0113,-0.035 0.0454,-0.435 0.0749,-0.8882 0.0815,-1.2656 1.34709,-2.5187 4.40637,-4.364 4.55586,-2.748 8.52568,-3.3195 12.50531,-1.8003 1.77883,0.6791 2.45096,1.1118 3.26545,2.1022 0.89391,1.0868 2.24696,3.7924 2.70904,5.4168 0.18882,0.665 0.29206,0.6623 2.81527,-0.072 z m -31.64659,-13.1882 c -0.26843,-0.3686 -0.20515,-0.5099 0.35868,-0.8027 0.75026,-0.3896 1.49849,0.026 1.49849,0.8323 0,0.5677 -1.43892,0.5448 -1.85717,-0.03 z m 53.48834,-9.05 c -0.007,-1.689 -0.0341,-1.755 -0.60718,-1.5504 -0.3293,0.1178 -0.89518,0.4777 -1.2576,0.8004 -0.78873,0.7021 -1.04343,0.2456 -0.44429,-0.7967 1.01493,-1.7654 5.1378,-2.8572 7.15746,-1.8955 1.10716,0.5272 1.4633,1.6297 0.39858,1.234 -0.74719,-0.2777 -3.76406,-0.2708 -4.16202,0.01 -0.16204,0.1144 -0.2951,0.7878 -0.2951,1.4967 0,0.7089 -0.17565,1.5537 -0.39067,1.8775 -0.35815,0.5396 -0.39142,0.4417 -0.39918,-1.1755 z m -57.94214,-1.15 c -0.76345,-0.3345 -1.94292,-1.1806 -2.62103,-1.8803 -1.05524,-1.0888 -1.23289,-1.4385 -1.23289,-2.4271 0,-1.4125 0.54024,-2.1454 2.07317,-2.8127 1.65511,-0.7203 5.36967,-0.4779 7.09129,0.4629 1.49854,0.8188 3.61716,2.8875 3.31599,3.2378 -0.11687,0.1357 -0.4161,0.082 -0.66526,-0.1201 -2.83708,-2.2964 -5.13311,-3.0646 -7.60177,-2.5431 -3.81724,0.8063 -3.70418,2.7544 0.31959,5.5059 1.92068,1.3134 1.60838,1.5784 -0.67909,0.5763 z m 4.71722,-12.5483 c -0.43093,-0.5917 -0.15365,-1.3685 0.48846,-1.3685 0.76805,0 1.25561,0.7929 0.83919,1.3647 -0.42095,0.5781 -0.90851,0.5794 -1.32765,0 z m 6.98219,-0.07 c -0.4693,-0.1919 -0.41359,-0.8951 0.0885,-1.1146 0.65419,-0.2861 0.90957,-0.2205 0.90957,0.2336 0,0.5459 -0.57542,1.0539 -0.99785,0.8809 z m 6.85204,-0.5728 c -4.02849,-0.555 -6.7855,-1.34278 -6.7855,-1.93889 0,-0.57203 0.58618,-0.53439 3.87808,0.24915 1.40119,0.3335 3.85592,0.83684 5.45499,1.11834 5.49483,0.9677 3.52887,1.4085 -2.54757,0.5714 z m -17.99092,-1.6625 c -1.85183,-0.35296 -2.83037,-0.812 -2.69441,-1.26382 0.15365,-0.51024 2.12367,-0.29788 8.44485,0.91032 l 0.93133,0.17814 -0.79828,0.21696 c -1.08935,0.29598 -4.22933,0.27387 -5.88349,-0.0416 z m -198.04675,32.4407 c 4.59214,-2.3543 10.20534,-5.2324 12.47384,-6.3957 2.26843,-1.1632 6.27982,-3.1776 8.91423,-4.4763 7.82192,-3.8562 15.14964,-7.6191 15.42028,-7.9186 0.15864,-0.1752 0.12755,-0.2798 -0.0824,-0.2798 -0.18405,0 -0.27143,-0.1173 -0.19403,-0.2605 0.0778,-0.1434 0.78372,-0.3465 1.56894,-0.4517 1.85435,-0.2484 7.35467,-2.1747 7.86266,-2.7536 0.34724,-0.3958 0.3179,-0.5237 -0.24989,-1.0892 l -0.6434,-0.6408 1.36633,0.1774 c 0.75154,0.098 2.30816,0.4614 3.45927,0.8082 2.35693,0.7101 3.99825,0.6451 6.61654,-0.2621 1.38176,-0.4787 1.60771,-0.6615 1.67928,-1.359 0.16204,-1.5794 -1.91369,-2.1679 -11.52486,-3.2671 -1.31717,-0.1505 -2.72068,-0.3506 -3.11894,-0.4444 -0.46544,-0.1094 -2.88885,0.5254 -6.78546,1.7779 -3.33376,1.0715 -8.15691,2.5842 -10.7181,3.3614 -6.84868,2.0785 -13.16307,4.1641 -20.35636,6.7238 -3.51248,1.2499 -7.90794,2.8126 -9.76769,3.4725 -2.46904,0.8762 -3.34387,1.3112 -3.24249,1.6124 0.0822,0.2446 0.35958,0.3466 0.6811,0.2509 0.81164,-0.2419 0.9774,0.3662 0.83846,3.0764 -0.13026,2.5394 -0.43965,3.9225 -1.06647,4.7661 -0.307,0.4132 -0.30041,0.5455 0.044,0.8711 0.22332,0.211 0.40591,0.6828 0.40591,1.0481 0,0.7557 -1.16329,2.1225 -2.07337,2.4361 -0.40646,0.1403 -0.56652,0.379 -0.47989,0.7164 0.0717,0.2785 0.20969,1.018 0.30683,1.6435 0.0971,0.6255 0.20833,1.1372 0.24659,1.1372 0.0381,0 3.82682,-1.9263 8.41896,-4.2807 z m 56.45823,1.6504 c -0.12936,-0.3845 -0.0631,-0.4604 0.27448,-0.3128 0.35942,0.1572 0.44549,0.01 0.44628,-0.7813 0,-1.2608 0.70237,-2.547 2.19452,-4.0263 l 1.19558,-1.1853 -1.19966,-2.5828 c -0.65977,-1.4206 -1.69667,-3.4699 -2.30418,-4.554 -2.0908,-3.7312 -2.66091,-5.0099 -3.23221,-7.2503 l -0.57289,-2.2465 -2.01321,0.067 c -1.43777,0.048 -2.25384,-0.075 -2.85511,-0.4292 -0.81277,-0.479 -0.8754,-0.4697 -1.81541,0.2701 -1.10388,0.8687 -2.50787,1.5769 -4.40098,2.2197 -0.71421,0.2425 -3.52821,1.8894 -6.25325,3.6596 -5.18932,3.3708 -9.60327,5.7997 -19.99514,11.0026 -3.436,1.7203 -7.6575,3.8347 -9.38118,4.6985 -1.72368,0.8639 -3.21045,1.658 -3.30401,1.7646 -0.0933,0.1067 11.88027,0.194 26.60854,0.194 24.92859,0 26.76691,-0.035 26.60783,-0.5075 z m 2.91783,-1.125 c -0.1212,-1.2269 -0.052,-1.4198 0.9013,-2.5062 0.56803,-0.6474 2.17633,-1.837 3.57398,-2.6436 2.04278,-1.1789 2.89021,-1.4985 4.32031,-1.6293 1.73829,-0.1591 2.20425,-0.4353 1.35807,-0.8054 -1.42168,-0.6218 -3.91941,0.1536 -6.56876,2.0393 -2.70494,1.9252 -4.93663,5.3892 -4.15953,6.4564 0.53396,0.7332 0.7097,0.4545 0.57463,-0.9112 z m 7.18373,-0.419 c 4.71496,-2.6626 6.04283,-6.2358 2.12262,-5.7117 -2.9865,0.3994 -8.31124,4.1611 -8.31124,5.8716 0,1.8106 2.82882,1.7375 6.18862,-0.1599 z m -76.01982,-0.565 c 0.72125,-0.2715 1.48669,-0.681 1.70099,-0.9098 0.33678,-0.3597 0.2938,-0.4161 -0.3169,-0.4161 -0.38862,0 -0.78643,-0.1473 -0.88402,-0.3273 -0.23084,-0.4258 -2.44185,-0.097 -4.37758,0.6512 -0.99377,0.384 -1.24572,0.5688 -0.785,0.5757 0.37323,0.01 0.7923,0.135 0.93132,0.2877 0.23678,0.2598 1.03489,0.4955 2.00158,0.5909 0.23011,0.023 1.00837,-0.1811 1.72961,-0.4523 z m 168.21286,-3.228 c -0.0585,-0.5383 -0.10622,-0.023 -0.10463,1.144 0,1.1676 0.0495,1.608 0.10712,0.9789 0.0576,-0.6292 0.0567,-1.5845 -0.003,-2.1229 z m -280.39166,0.1312 c 0,-1.7094 0.91719,-5.5063 1.84479,-7.6371 2.36468,-5.4317 8.26727,-14.1202 12.17333,-17.9189 0.96229,-0.9359 2.50408,-2.1426 3.42619,-2.68161 2.75667,-1.61136 2.54694,-1.83371 -1.72958,-1.83371 -5.41859,0 -9.33199,1.05058 -15.9403,4.27942 -4.83052,2.3602 -7.581138,4.75 -8.915008,7.7455 -0.38842,0.8724 -0.38909,1.0978 -0.007,2.5778 0.51811,2.0084 1.43994,4.5031 1.66342,4.5016 0.0917,-6e-4 0.379,-0.5806 0.63831,-1.2889 0.52412,-1.4314 1.414168,-2.8789 1.623508,-2.6403 0.0746,0.085 -0.23536,1.4018 -0.688848,2.926 -0.73606,2.4738 -0.78805,2.8718 -0.48436,3.7074 0.43815,1.2055 0.681418,1.1797 1.226848,-0.1303 0.90661,-2.1774 1.24235,-1.3615 0.4838,1.1757 -0.425,1.4214 -0.42306,1.4384 0.3069,2.7075 0.95983,1.6687 3.904,5.6744 4.17066,5.6744 0.11411,0 0.2076,-0.5241 0.2076,-1.1646 z m 113.10362,-0.2077 c 0.98056,-0.5779 1.31788,-1.3083 1.31788,-2.8536 0,-0.926 -0.10576,-1.233 -0.42407,-1.233 -0.23329,0 -0.48667,-0.2729 -0.5632,-0.6065 -0.18632,-0.8112 -0.50633,-0.7643 -1.0329,0.1516 -0.58268,1.0135 -1.61495,1.0124 -2.02052,0 -0.28913,-0.7231 -0.32844,-0.7349 -0.80592,-0.2424 -0.42457,0.4379 -0.63058,0.4624 -1.3359,0.1591 -0.45865,-0.1972 -0.85639,-0.3269 -0.88383,-0.2882 -0.0277,0.039 -0.10802,0.7934 -0.17952,1.6768 -0.1146,1.4229 -0.0393,1.7476 0.65857,2.8458 l 0.78793,1.2396 1.85564,-0.1968 c 1.02061,-0.108 2.20211,-0.4007 2.62559,-0.6503 z m 187.23764,-1.8821 c -0.0674,-0.2951 -0.12686,-0.1271 -0.1323,0.3733 -0.005,0.5003 0.0497,0.7418 0.12255,0.5364 0.0728,-0.2051 0.0776,-0.6147 0.009,-0.9097 z m -115.6935,-0.9455 c 0.63179,-0.5687 0.63644,-0.6086 0.29096,-2.5105 -0.78225,-4.3073 -3.50642,-11.828 -4.74812,-13.1088 -0.41463,-0.4276 -0.59572,-0.4273 -1.91372,0 -1.76323,0.5763 -2.14492,0.9206 -1.56647,1.4128 0.23182,0.197 0.49675,0.8915 0.58864,1.5426 0.24765,1.7532 3.40222,8.9437 4.20396,9.5821 0.10485,0.084 0.52023,1.0662 0.92291,2.1837 0.78615,2.1817 0.79006,2.1833 2.22184,0.8945 z m -160.46002,-0.3282 1.70259,-0.1727 1.81858,-2.881 c 3.52215,-5.5797 4.83301,-9.5174 4.84585,-14.5565 0.007,-3.2097 -0.27294,-5.0612 -1.46374,-9.64027 -0.57923,-2.22749 -0.76145,-3.42356 -0.63683,-4.18062 0.16381,-0.99444 0.22746,-1.05071 1.02554,-0.90432 3.70051,0.67887 18.23643,1.67456 24.53359,1.68051 3.98908,0.003 9.63286,-0.4722 12.77262,-1.07712 4.84295,-0.93312 13.70395,-3.95566 13.70395,-4.67448 0,-0.50143 -0.78832,-0.55805 -2.16906,-0.15546 -3.20673,0.93437 -6.05636,1.21127 -12.46623,1.21127 -6.93279,0 -10.76062,-0.2975 -10.48023,-0.81459 0.10036,-0.18496 0.71014,-0.23159 1.53165,-0.11665 2.7048,0.3784 19.68997,-0.83703 21.45511,-1.53529 0.27786,-0.10961 0.0754,-0.37718 -0.66632,-0.87945 -1.04991,-0.71101 -1.19371,-0.72381 -9.84558,-0.87802 -4.82904,-0.086 -9.73804,-0.26044 -10.90885,-0.38755 l -2.12877,-0.23112 2.39486,-0.20039 c 1.31716,-0.10984 5.74767,-0.22081 9.84556,-0.24632 l 7.45071,-0.0461 -1.19744,-0.70693 c -3.82482,-2.25806 -10.16072,-4.17357 -15.81284,-4.78062 -13.36213,-1.43519 -29.00632,5.67489 -35.82419,16.28156 -1.88203,2.92795 -4.1133,8.24246 -4.79673,11.42496 -1.20421,5.6078 -0.66858,11.8323 1.47267,17.1141 0.88572,2.1847 0.94708,2.2609 1.5318,1.9008 0.33503,-0.2063 1.37531,-0.4528 2.31173,-0.5477 z m 276.86422,-0.1707 c -0.084,-0.2491 -0.2598,-0.3776 -0.39082,-0.2853 -0.37568,0.2646 -0.2778,0.7385 0.15274,0.7385 0.23747,0 0.33086,-0.1777 0.23822,-0.4532 z m 6.28952,0.1498 c 0,-0.1668 -0.0526,-0.3032 -0.11756,-0.3032 -0.0644,0 -0.19131,0.1366 -0.28177,0.3032 -0.0903,0.1668 -0.0379,0.3033 0.11755,0.3033 0.15501,0 0.28184,-0.1366 0.28184,-0.3033 z m -3.19316,-1.0793 c 0,-0.26 -0.1196,-0.3884 -0.26613,-0.2853 -0.14661,0.103 -0.26607,0.3158 -0.26607,0.4727 0,0.1571 0.1196,0.2854 0.26607,0.2854 0.1466,0 0.26613,-0.2126 0.26613,-0.4728 z m -24.03302,-3.2232 c -0.0851,-0.2419 -0.14774,-0.17 -0.16067,0.1829 -0.009,0.3197 0.0515,0.4988 0.14002,0.398 0.0883,-0.101 0.0978,-0.3623 0.0204,-0.5812 z m -3.10882,-0.8529 c 0,-0.1668 -0.12686,-0.3033 -0.28181,-0.3033 -0.15478,0 -0.20811,0.1366 -0.11756,0.3033 0.0903,0.1668 0.21718,0.3033 0.28177,0.3033 0.0644,0 0.11755,-0.1367 0.11755,-0.3033 z m 0.66819,-3.9462 c 0.4987,-0.628 0.50781,-0.9358 0.0204,-0.723 -0.41197,0.1802 -0.85703,1.2883 -1.08361,2.698 -0.11801,0.7337 -0.0674,0.6789 0.25997,-0.2831 0.22353,-0.6561 0.58438,-1.4175 0.80224,-1.6919 z m 6.71599,1.6143 c -0.25616,-0.076 -0.67525,-0.076 -0.93135,0 -0.25613,0.076 -0.0466,0.1387 0.46564,0.1387 0.51225,0 0.72183,-0.063 0.46571,-0.1387 z m 6.87882,-1.748 c -0.16294,-0.74 -0.69209,-1.0986 -0.69209,-0.469 0,0.1668 0.11959,0.3032 0.26607,0.3032 0.1466,0 0.26609,0.2957 0.26609,0.6571 0,0.3614 0.074,0.5725 0.16521,0.469 0.0906,-0.1032 0.0883,-0.5355 -0.005,-0.9603 z m -10.19442,-0.4694 c 0.0767,-0.3339 0.0309,-0.5305 -0.10189,-0.437 -0.13254,0.093 -0.24117,0.3666 -0.24117,0.6069 0,0.6277 0.1811,0.5382 0.34327,-0.1697 z m 5.08509,-0.4018 c 0.18836,-0.1609 0.15024,-0.2063 -0.10666,-0.1264 -0.21968,0.068 -0.42697,0.3856 -0.46099,0.7054 -0.0434,0.4085 -0.0113,0.4462 0.10667,0.1267 0.0926,-0.2502 0.29997,-0.5677 0.46094,-0.7055 z m 88.10773,-5.0622 c 0.0924,-0.17 0.78771,-0.669 1.54575,-1.1088 1.78503,-1.0359 4.56595,-1.2899 6.30095,-0.5755 0.65859,0.2712 1.3071,0.5235 1.44109,0.5608 0.34255,0.095 0.63696,-1.5884 0.84986,-4.8602 0.1264,-1.9418 0.0935,-2.8051 -0.10621,-2.8051 -0.17861,0 -0.23358,-0.3861 -0.14434,-1.0129 0.19268,-1.35248 -0.79825,-5.77531 -2.01661,-9.00198 -2.08924,-5.53282 -6.07436,-11.14213 -10.45381,-14.71452 -1.21525,-0.99126 -2.41152,-2.08667 -2.65843,-2.43418 -0.24684,-0.34758 -1.0234,-0.96247 -1.72551,-1.36653 -0.70214,-0.40406 -2.17657,-1.43493 -3.27644,-2.29086 -2.52467,-1.9646 -4.64943,-3.17931 -7.92714,-4.53166 -8.36416,-3.45108 -20.53041,-5.6431 -31.59231,-5.69206 -4.58365,-0.0204 -5.70952,0.072 -8.11593,0.66411 -4.04371,0.99526 -7.30406,2.92831 -8.03886,4.76621 -0.2717,0.67967 -0.20265,0.87423 0.67489,1.8983 1.48143,1.72899 1.33719,2.28852 -0.91118,3.53555 -3.33628,1.85044 -5.50203,4.17366 -6.09782,6.54097 -0.1811,0.71887 -0.0622,1.01007 0.85451,2.09738 0.93997,1.11488 1.04911,1.39341 0.93271,2.38038 -0.0726,0.61475 -0.3398,1.77195 -0.59395,2.57158 -0.31809,1.00098 -0.38646,1.64702 -0.21923,2.07374 0.21514,0.54932 0.35964,0.39188 1.27047,-1.38303 0.91227,-1.77779 1.21047,-2.10186 2.65326,-2.88316 3.85921,-2.0898 7.7794,-2.50445 20.17853,-2.1343 16.82981,0.50243 28.55779,3.35203 38.13425,9.26571 1.73396,1.07076 3.2983,1.94683 3.47634,1.94683 0.80097,0 3.19782,8.1002 4.23989,14.32912 0.70541,4.2164 0.92423,4.9038 1.32545,4.1641 z m -194.38664,-6.4892 c 0,-0.9215 -1.066,-3.19666 -1.73004,-3.69253 -1.50883,-1.12669 -5.24992,-0.0967 -5.61144,1.54463 -0.0971,0.4413 -0.0719,0.9126 0.0568,1.0472 0.12823,0.1348 1.4205,0.4103 2.87144,0.6125 1.45098,0.202 2.88789,0.4829 3.19315,0.6236 0.83484,0.3848 1.22028,0.342 1.22028,-0.1355 z M 85.622232,810.50355 c 0.001,-0.10576 -0.29761,-0.25731 -0.66351,-0.33701 -0.55222,-0.12028 -0.66524,-0.0277 -0.66524,0.54638 0,0.38021 0.0759,0.91675 0.16864,1.19225 0.14012,0.4164 0.25219,0.3565 0.66351,-0.3542 0.27213,-0.47044 0.49559,-0.94173 0.49654,-1.04742 z M 281.0146,808.74334 c 0.35058,-0.37258 -1.47672,-3.19295 -2.13805,-3.30002 -0.32927,-0.0531 -0.5987,0.0331 -0.5987,0.19199 0,0.15908 -0.23947,0.36034 -0.5322,0.4476 -0.76505,0.22783 -0.68871,1.58088 0.14274,2.52843 0.58835,0.67053 0.81868,0.74254 1.79617,0.56153 0.61665,-0.11415 1.21521,-0.30751 1.33006,-0.42961 z M 87.022762,807.89026 c 0.53605,-0.62561 1.26252,-1.78561 1.61438,-2.57773 l 0.6398,-1.44023 h -3.02391 c -1.70517,0 -3.02393,0.12414 -3.02393,0.28445 0,0.87312 0.88696,4.44371 1.15145,4.63542 0.73621,0.53373 1.69157,0.20766 2.64221,-0.90191 z m 4.58839,-6.45762 c 16.997428,-1.65316 32.943288,-9.36139 42.567108,-20.57681 l 1.58824,-1.85093 -1.32214,-0.007 c -0.7272,-0.005 -2.16036,-0.35187 -3.18483,-0.77235 -1.28753,-0.52848 -2.56108,-0.79623 -4.1245,-0.86712 -2.23487,-0.10145 -6.43086,-1.33793 -6.79055,-2.00118 -0.20379,-0.37608 -0.20658,-0.3763 1.79739,0.15341 0.93078,0.24607 2.54394,0.5849 3.58486,0.75313 1.66437,0.26906 2.03378,0.23457 3.06398,-0.28461 1.60424,-0.80876 2.12546,-1.56066 2.26997,-3.27481 0.21246,-2.52054 -0.96022,-2.74612 -4.19174,-0.80628 -1.95313,1.17245 -4.01763,1.98362 -4.5543,1.78951 -0.79667,-0.28817 -0.58574,-0.65348 0.49632,-0.85974 1.66923,-0.31816 1.79204,-0.53323 1.13833,-1.99357 -0.85206,-1.90345 -1.60401,-5.60753 -1.60401,-7.90137 0,-2.48332 0.80218,-6.1891 1.79035,-8.27068 0.9537,-2.00899 3.29363,-4.88831 4.77851,-5.88005 5.6572,-3.77837 12.29527,-1.77762 16.0762,4.84541 l 1.00684,1.76374 0.21498,-1.15721 c 0.38142,-2.05361 0.21957,-8.85892 -0.27909,-11.73308 -0.56895,-3.27966 -1.56458,-6.93919 -2.62212,-9.63783 l -0.79082,-2.01809 -1.14962,0.88421 c -2.21401,1.70296 -4.58701,2.74751 -7.52608,3.31292 -9.14424,1.75919 -18.42521,1.61297 -27.73096,-0.43683 -1.82941,-0.403 -3.9848,-0.8193 -4.78974,-0.92522 -5.102258,-0.67109 -13.589758,-3.49401 -17.686378,-5.8824 -2.36364,-1.37802 -3.2334,-1.75604 -3.37537,-1.46696 -0.675,1.37459 -3.71173,5.87494 -6.1465,9.10892 -3.04052,4.03854 -7.2585,8.3032 -9.85917,9.96825 -2.77946,1.77955 -4.02708,2.80182 -4.36282,3.57488 -0.48981,1.12784 -0.97189,0.93033 -1.08956,-0.4463 -0.12965,-1.51505 -0.57667,-2.50641 -1.69954,-3.76803 -1.87925,-2.11145 -3.75507,-2.57562 -6.19021,-1.53182 -3.05617,1.31003 -4.96204,4.40546 -4.55704,7.40136 0.37628,2.78316 0.99592,4.21666 2.59451,6.00214 1.5497,1.73092 1.52978,2.21929 -0.0525,1.28677 -0.75488,-0.44491 -0.86916,-0.40246 -4.31086,1.60028 -3.85872,2.24539 -8.97427,4.28166 -13.31319,5.29935 -1.50082,0.35202 -2.76652,0.67024 -2.81271,0.70712 -0.11996,0.096 1.43775,3.59494 2.55489,5.73882 3.27161,6.27839 8.8509,12.76113 14.83149,17.23304 1.4605,1.09212 2.46579,1.05644 5.63686,-0.20017 3.93801,-1.56032 5.43964,-1.8262 9.19742,-1.6286 3.98884,0.20992 5.61366,0.69197 9.37435,2.78184 4.7879,2.66071 9.35244,6.88009 11.4118,10.54901 l 0.97803,1.74244 2.98542,-0.003 c 1.64197,-0.002 4.42233,-0.14298 6.17854,-0.31375 z M 113.54293,782.0372 c -1.87554,-0.36611 -4.37143,-1.95831 -7.16343,-4.56969 -1.17637,-1.10027 -1.2466,-1.12271 -3.99145,-1.27477 -1.86618,-0.10326 -3.368378,-0.3759 -4.523638,-0.82076 -4.74021,-1.82539 -8.44866,-6.0421 -10.14026,-11.53012 -0.50287,-1.63147 -0.60759,-2.59837 -0.60759,-5.61033 0,-3.01198 0.10471,-3.97883 0.60759,-5.61029 1.68706,-5.47333 5.33772,-9.63385 10.14026,-11.5565 1.43154,-0.57312 2.279938,-0.69245 4.922788,-0.69245 2.64285,0 3.49124,0.11914 4.92278,0.69245 4.80255,1.92265 8.45321,6.08317 10.14027,11.5565 0.50287,1.63146 0.60759,2.59831 0.60759,5.61029 0,3.01196 -0.10471,3.97886 -0.60759,5.61033 -1.65326,5.36363 -5.29339,9.59033 -9.80769,11.38801 l -1.67544,0.66721 0.99767,0.99835 c 2.82361,2.82537 6.79924,4.81016 8.80127,4.39397 0.87429,-0.182 0.94358,-0.15364 0.59119,0.2407 -0.53988,0.60403 -1.74447,0.79407 -3.21432,0.50715 z m -9.56675,-7.35374 c -0.005,-0.20879 -0.17933,-0.63622 -0.38807,-0.95046 -0.20888,-0.31427 -0.52378,-1.30581 -0.70006,-2.20344 -0.36165,-1.84172 -0.26138,-1.82371 -2.86923,-0.51606 -2.700878,1.35428 -1.772808,-0.11302 1.03875,-1.64225 1.46412,-0.79639 3.51922,-1.09275 3.67506,-0.53 0.0456,0.1643 -0.28377,0.40707 -0.73177,0.5394 -0.44798,0.13208 -0.81451,0.29977 -0.81451,0.37209 0,0.54437 1.17651,3.49978 1.66112,4.17275 0.5982,0.83066 0.60599,0.8323 1.87259,0.39082 3.92809,-1.36899 7.14544,-4.35882 8.90388,-8.27406 1.38909,-3.09289 1.79855,-4.87108 1.79855,-7.81072 0,-2.93961 -0.40946,-4.7178 -1.79855,-7.81066 -1.43722,-3.20006 -3.3472,-5.32204 -6.31366,-7.01449 -4.70532,-2.68446 -8.75757,-2.59516 -13.591078,0.29952 -2.60409,1.55955 -4.50961,3.83434 -5.94035,7.09151 -2.35549,5.3625 -2.27713,9.98072 0.2628,15.4893 2.03549,4.4145 5.78293,7.36867 10.882868,8.57912 1.25195,0.29719 3.05993,0.18904 3.05166,-0.18223 z m 10.3872,-12.20489 c -0.22365,-0.30705 -0.22621,-0.58306 -0.0102,-1.04342 0.52079,-1.10898 1.54666,-0.63403 1.21359,0.56184 -0.21142,0.7592 -0.82307,1.00398 -1.2035,0.48158 z m -55.615138,-8.03249 c 0,-0.33068 -0.52121,-1.22113 -1.15823,-1.97883 -1.26525,-1.50488 -1.37646,-1.51355 -3.16056,-0.24734 -0.54591,0.38748 -1.19544,0.70452 -1.4434,0.70452 -0.38093,0 -0.3568,-0.11415 0.15564,-0.73563 0.33353,-0.40462 0.97138,-0.93712 1.41745,-1.18331 l 0.81105,-0.44767 -1.03843,-0.60248 c -0.57114,-0.33136 -1.57729,-0.77716 -2.23589,-0.99068 -1.45664,-0.47217 -1.80558,-0.77551 -1.41028,-1.22601 0.21294,-0.24242 0.71412,-0.19426 1.83798,0.17838 3.94129,1.30581 6.75691,3.95477 6.75691,6.35701 0,0.42525 -0.11974,0.77317 -0.2661,0.77317 -0.14649,0 -0.2661,-0.27051 -0.2661,-0.6012 z m 460.100728,27.59135 c 1.90098,2.7e-4 5.63801,1.6129 8.37646,3.61463 0.49637,0.36284 0.94789,0.0965 4.9228,-2.90269 2.40693,-1.81618 4.91511,-3.67999 5.57367,-4.1418 0.65861,-0.46182 0.95797,-0.77501 0.66526,-0.69598 -7.05252,1.90393 -17.102,2.72959 -24.69792,2.02914 -2.16837,-0.20017 -4.128,-0.4447 -4.35478,-0.54391 -0.32993,-0.14411 -0.37382,-0.035 -0.21968,0.54788 0.43401,1.63818 1.78195,4.51242 2.79873,5.96783 l 1.08254,1.54942 2.3177,-2.71233 c 2.25095,-2.63431 2.35271,-2.71239 3.53502,-2.71219 z m -24.63383,-2.93668 c 1.25357,-0.44992 1.61486,-0.71724 1.68163,-1.24417 0.0466,-0.36915 0.10712,-0.67005 0.13298,-0.66869 0.0264,10e-4 1.396,0.20515 3.04356,0.45345 3.38551,0.50976 4.97901,0.35195 9.02669,-0.89397 2.92162,-0.8993 4.74991,-1.83376 5.28212,-2.69975 0.44286,-0.72053 0.52898,-2.32091 0.12482,-2.32091 -0.1466,0 -0.26607,-0.41058 -0.26607,-0.91236 0,-0.82922 0.0472,-0.87864 0.51989,-0.54229 0.42644,0.30349 0.8659,0.24312 2.44444,-0.3364 4.45534,-1.6353 8.00182,-3.77087 8.92289,-5.37296 0.65174,-1.13358 0.52862,-3.20741 -0.28443,-4.78841 -0.68028,-1.32298 -2.3629,-2.93521 -4.15209,-3.97842 -1.11016,-0.64724 -0.70482,-0.91503 0.71085,-0.46959 0.80801,0.25424 1.08672,0.22828 1.40078,-0.12959 0.34536,-0.39358 0.33011,-0.49931 -0.12822,-0.88757 -1.06749,-0.90468 -3.12798,-1.23318 -7.70466,-1.22837 -5.87868,0.005 -6.39739,0.17951 -7.44782,2.49086 -1.01876,2.24146 -4.38986,6.25592 -6.94157,8.2663 -3.52142,2.77435 -7.39052,4.51035 -13.94987,6.25908 -1.53675,0.40968 -3.21318,0.70879 -3.72537,0.6646 l -0.93135,-0.0801 0.0722,1.28552 c 0.18405,3.29509 2.0466,6.48353 4.35206,7.4504 1.53235,0.64261 5.60329,0.47771 7.8166,-0.31668 z m 35.39083,-1.75648 c 11.12826,-1.68736 21.06025,-5.51292 29.673,-11.42918 12.50525,-8.59019 20.46081,-20.6761 23.1936,-35.23539 0.4445,-2.36799 0.58175,-4.16102 0.59544,-7.77797 0.009,-2.58531 -0.0638,-4.92936 -0.16294,-5.20899 -0.16704,-0.46964 -0.28686,-0.46256 -1.56904,0.0928 -0.76348,0.33058 -2.05184,0.69587 -2.86309,0.8117 l -1.47497,0.2106 -0.59237,1.88603 c -1.18492,3.77288 -3.65021,7.03782 -6.43923,8.52784 -1.29103,0.68979 -1.8575,0.80551 -3.90496,0.79763 -1.59371,-0.005 -2.70643,-0.16907 -3.32619,-0.48724 -0.92892,-0.47681 -0.92504,-0.47801 1.489,-0.4569 2.20877,0.0204 2.57278,-0.0642 4.1634,-0.95671 1.18573,-0.6653 2.25275,-1.59895 3.33742,-2.92048 3.49115,-4.25325 4.16535,-8.96041 1.72436,-12.03959 -2.36822,-2.98745 -5.95036,-3.59616 -10.54987,-1.79271 -1.99628,0.78275 -4.56087,2.57024 -5.28162,3.68124 -0.31395,0.48398 -0.75785,0.88201 -0.9865,0.88457 -0.36356,0.004 -0.36592,0.0406 -0.0181,0.29065 0.59293,0.4272 -0.03,0.98718 -0.96319,0.86565 -0.70462,-0.0919 -0.76419,-0.19767 -0.76419,-1.3571 0,-1.18484 -0.0924,-1.33569 -1.59657,-2.60784 -3.9572,-3.34661 -8.26455,-10.02836 -9.1952,-14.26399 -0.17792,-0.80928 -0.26591,-2.48775 -0.1997,-3.79846 0.19607,-3.86111 1.90972,-6.8423 5.20949,-9.0633 1.77059,-1.19172 6.21006,-2.78658 9.5896,-3.44504 1.69046,-0.32936 3.12224,-0.65425 3.18169,-0.72204 0.18406,-0.20992 -5.23892,-3.76875 -8.32013,-5.46025 -7.15791,-3.92935 -15.01592,-6.52387 -24.08174,-7.95118 -4.58442,-0.72184 -14.30847,-0.72184 -18.89285,0 -11.4696,1.80574 -21.17347,5.53999 -29.80607,11.46993 -12.50579,8.59059 -20.47178,20.69342 -23.19149,35.2354 -0.43967,2.35072 -0.57818,4.1516 -0.58674,7.62632 -0.0113,5.06047 0.39164,8.04172 1.74504,12.87758 1.24083,4.43369 1.18553,4.39245 2.22746,1.66083 1.22055,-3.19984 2.41502,-5.1678 4.75543,-7.83513 5.39096,-6.14393 12.53183,-8.07912 20.86478,-5.65435 2.73891,0.79698 5.59603,1.96253 7.54075,3.07619 2.79081,1.5982 2.19297,1.95378 -1.20541,0.71693 -5.78069,-2.10389 -10.82987,-2.6405 -14.54141,-1.54538 -7.07703,2.08805 -12.68519,8.31702 -14.60808,16.22512 -0.46335,1.90559 -0.51842,2.78331 -0.38947,6.20854 0.13389,3.56218 0.23379,4.19819 0.93073,5.94122 0.42929,1.07361 1.21818,2.60604 1.75309,3.40542 1.84214,2.75295 6.47168,6.40358 9.38667,7.40187 0.80495,0.27565 2.17532,0.75868 3.04523,1.07342 0.86999,0.31468 2.04531,0.57219 2.61191,0.57219 0.56666,0 1.27027,0.14661 1.5636,0.32528 0.6419,0.39155 6.85919,-1.05454 10.38787,-2.41601 6.2117,-2.39672 12.23433,-7.33198 14.19373,-11.63111 0.82857,-1.8178 1.19361,-2.16585 1.19361,-1.13794 0,0.72351 -0.0609,0.71788 1.82425,0.16998 5.13005,-1.49059 11.32624,-0.97413 13.26915,1.10603 0.69563,0.74476 0.78908,1.81256 0.20674,2.36319 -0.34329,0.32472 -0.22959,0.54805 0.80939,1.5904 2.69595,2.70448 3.15512,6.27036 1.14366,8.88122 -1.18641,1.54 -3.66692,3.00343 -7.57245,4.46765 l -3.42772,1.28497 0.0858,1.02156 c 0.11779,1.40222 -0.38297,2.62932 -1.50132,3.67993 -0.67594,0.63498 -0.83499,0.92969 -0.56188,1.04116 1.41664,0.5783 12.43074,0.39777 16.87887,-0.27673 z m 34.43606,-52.47136 c -0.0592,-0.40148 -0.12437,-1.73196 -0.1895,-3.86654 -0.044,-1.43766 -0.13503,-1.74289 -0.51879,-1.73879 -0.859,0.009 -2.56514,1.33429 -2.72976,2.12012 -0.14775,0.70671 -0.17657,0.71851 -0.44235,0.18224 -0.62683,-1.26627 0.43377,-3.18934 2.39721,-4.3467 1.18807,-0.70033 1.70495,-0.81185 3.8263,-0.82558 2.16479,-0.0113 2.51993,0.0606 3.02588,0.63587 0.86436,0.98278 0.43221,1.3189 -1.70239,1.32408 -1.05243,0.002 -2.04687,0.10485 -2.20988,0.22733 -0.16294,0.12255 -0.35281,1.2463 -0.42184,2.49723 -0.0697,1.25942 -0.31836,2.68054 -0.55776,3.18425 -0.23774,0.5004 -0.45245,0.77332 -0.47708,0.60651 z m -60.88663,-4.07569 c -0.18927,-0.13344 -0.30111,-0.49918 -0.24812,-0.8128 0.12505,-0.73962 1.37516,-0.78964 1.49846,-0.0597 0.10303,0.61043 -0.76378,1.21548 -1.25034,0.87276 z m -9.89687,-1.72104 c -0.30592,-0.42005 -0.26697,-0.57239 0.27374,-1.0714 0.69737,-0.64349 1.04285,-0.61651 1.44672,0.11302 0.59579,1.07639 -0.99093,1.96008 -1.72046,0.95819 z m 19.05117,-2.90759 c -4.43913,-0.24265 -9.73777,-0.98346 -10.54108,-1.47338 -0.25679,-0.15637 -0.76137,-0.28484 -1.12122,-0.28484 -0.78242,0 -0.95896,-0.44179 -1.16078,-2.90503 -0.18088,-2.20511 0.19675,-3.7205 1.27485,-5.11999 1.0057,-1.30544 2.12691,-1.84763 2.87596,-1.39075 0.306,0.18678 0.55635,0.5551 0.55635,0.81888 0,0.36643 0.1727,0.43535 0.73178,0.2921 4.265,-1.0926 8.41664,-0.76119 9.11583,0.72762 0.35592,0.7579 0.34867,0.79197 -0.31836,1.50019 -0.57491,0.61042 -0.57539,0.6183 -0.0359,0.6183 0.30057,0 0.86198,0.28287 1.24757,0.62852 0.82662,0.74103 0.96624,2.4774 0.26972,3.35451 -0.58439,0.73597 -0.31648,1.3536 0.86673,1.998 1.05137,0.57263 1.40713,1.14255 0.83993,1.34568 -0.18904,0.0676 -2.25978,0.0182 -4.60142,-0.10961 z m 1.78284,-1.21233 c -0.44485,-0.50699 -0.39896,-1.92804 0.0797,-2.47373 0.48052,-0.54767 0.51759,-1.45497 0.0797,-1.95388 -0.37922,-0.43219 -1.87421,-0.47438 -3.06135,-0.0862 -0.59795,0.1954 -0.92746,0.16975 -1.11392,-0.086 -0.37432,-0.51412 -0.0946,-0.88328 1.52916,-2.0172 1.27099,-0.8876 1.37175,-1.03067 0.93133,-1.32242 -0.27158,-0.17997 -1.75112,-0.32346 -3.28788,-0.31902 -2.34991,0.007 -3.01982,0.12187 -4.2151,0.72534 -1.49612,0.75508 -1.98675,0.58542 -1.71623,-0.59351 0.20742,-0.90352 -0.36445,-0.95803 -1.24027,-0.11823 -1.15237,1.10502 -1.60954,2.25404 -1.60954,4.04484 0,2.57731 0.68051,2.98921 6.25324,3.78516 6.13477,0.87618 7.8609,0.97334 7.37091,0.4149 z m -21.47396,-0.13912 c -3.73217,-0.34243 -9.54034,-2.01727 -10.2167,-2.94608 -0.2441,-0.33524 0.0204,-0.43911 1.44819,-0.56974 0.9607,-0.0878 1.79782,-0.21786 1.86025,-0.28919 0.0626,-0.0713 -0.0313,-0.56738 -0.20901,-1.10272 -0.46542,-1.4052 -0.0397,-2.02662 1.36445,-1.9931 0.89431,0.0204 1.09593,-0.076 1.09593,-0.53068 0,-0.30629 0.25118,-0.84319 0.55824,-1.19311 0.54091,-0.61644 1.08138,-0.6506 2.15186,-0.13616 0.36853,0.17678 0.46324,0.009 0.53218,-0.94409 0.1078,-1.49108 0.70224,-1.64597 2.09507,-0.54593 2.00713,1.58522 3.976,5.83976 3.976,8.59176 v 1.47082 l -1.39697,0.19131 c -0.76834,0.10508 -1.57662,0.1693 -1.79616,0.14297 -0.21968,-0.0266 -0.87812,-0.0921 -1.46353,-0.14615 z m 4.12448,-1.41324 c 0,-1.85124 -2.30082,-6.64743 -3.78749,-7.8952 -0.95144,-0.79855 -1.15337,-0.50236 -0.81307,1.19244 0.35096,1.74803 -0.0792,2.05845 -1.27007,0.91647 -0.45243,-0.43387 -1.0529,-0.78886 -1.33437,-0.78886 -0.42035,0 -0.51179,0.21809 -0.51179,1.22254 0,1.43603 -0.42871,1.75486 -1.60991,1.19727 -0.9591,-0.45278 -1.29659,-0.20153 -0.71865,0.53511 0.68135,0.86842 0.71223,2.20052 0.0511,2.20052 -0.22827,0 -0.35177,0.1162 -0.27458,0.2587 0.23427,0.43232 6.14595,1.43085 9.00493,1.52099 0.88646,0.0281 1.26396,-0.0794 1.26396,-0.35998 z m -359.15489,63.11628 c 1.29961,-1.75979 3.17079,-5.10923 4.61503,-8.26092 1.3623,-2.97298 3.29248,-8.89017 3.29248,-10.09356 0,-1.19032 -1.71806,-4.50627 -3.23167,-6.23737 -2.51037,-2.87105 -5.97618,-4.2685 -8.91696,-3.59543 -4.89857,1.12116 -8.4,5.38027 -9.59031,11.66549 -0.37798,1.99577 -0.402,2.74493 -0.15106,4.70782 0.29967,2.34314 1.11274,5.25162 1.73327,6.20011 0.30635,0.4682 0.50254,0.43379 2.49883,-0.43836 2.42795,-1.06083 3.28805,-1.01426 3.77517,0.20425 0.66347,1.65949 0.33752,3.75928 -0.80598,5.19231 l -0.51897,0.65035 1.28399,0.46741 c 2.03513,0.74083 2.2651,0.7805 3.81193,0.65731 1.26884,-0.10121 1.56204,-0.24988 2.20413,-1.11936 z m -11.93902,-12.18057 c -0.25219,-0.74919 -0.007,-1.5443 0.50964,-1.65789 0.39754,-0.0871 0.46642,0.0663 0.39611,0.88295 -0.0912,1.05917 -0.64929,1.53665 -0.90575,0.77494 z m 18.29527,7.24792 c 0.93202,-1.62332 1.76225,-4.1462 2.19974,-6.68433 0.0863,-0.50039 -0.54271,0.73196 -1.39765,2.73852 -0.85497,2.00654 -1.99413,4.43149 -2.53144,5.38873 -0.5373,0.95729 -0.97692,1.83161 -0.97692,1.94298 0,0.46997 1.74839,-1.71751 2.70627,-3.3859 z M 33.469062,762.67916 c 5.56222,-2.18219 13.03872,-5.81979 13.03872,-6.3438 0,-0.0769 -0.35961,-0.65691 -0.79913,-1.28938 -3.40991,-4.90664 -2.03008,-10.8766 3.13704,-13.57257 2.10088,-1.09613 4.69006,-1.27003 6.23329,-0.41864 1.2709,0.70115 2.62864,2.03679 3.72517,3.66454 0.62035,0.92087 0.77707,1.00613 1.32557,0.72134 0.7705,-0.40008 5.56104,-4.80916 10.32675,-9.50448 3.53267,-3.48051 9.31337,-10.07855 9.31337,-10.63025 0,-0.5189 0.76024,-0.29037 4.04861,1.21691 3.9325,1.80259 8.5834,3.43029 12.11319,4.23936 4.377468,1.00334 17.198718,3.04301 21.152688,3.365 5.09761,0.41517 13.01778,-0.18927 18.43274,-1.40721 2.23733,-0.50313 6.12997,-2.06745 6.40455,-2.57375 0.0887,-0.16363 -0.34721,-1.28037 -0.9685,-2.48206 -7.78083,-15.04928 -23.65234,-26.00091 -42.955648,-29.64021 -7.03767,-1.3268 -11.7705,-1.43076 -21.30345,-0.46777 -7.45302,0.75284 -18.31013,4.55765 -25.5469,8.95271 -13.73475,8.34149 -22.39424,20.48103 -25.17295,35.28934 -0.75817,4.04056 -0.81661,10.36484 -0.13194,14.27219 0.51385,2.93203 1.68214,7.41189 2.07826,7.96903 0.30114,0.42359 2.16833,-0.0343 5.54846,-1.3603 z M 582.02949,715.18099 c 1.63011,-1.23313 3.58981,-4.23636 3.58981,-5.50141 0,-1.29083 -1.34164,-5.54752 -2.05154,-6.50903 -0.38753,-0.52485 -1.47325,-1.37273 -2.41265,-1.8842 -0.93946,-0.51141 -1.769,-1.11077 -1.84349,-1.33194 -0.0742,-0.22105 0.52193,-1.39167 1.32538,-2.60109 0.80342,-1.2094 1.60249,-2.51398 1.77573,-2.89904 0.4095,-0.91037 0.15932,-2.19696 -0.85319,-4.38505 -2.07998,-4.49565 -6.43696,-6.59233 -13.69096,-6.58858 -3.74093,0.002 -6.17022,0.34847 -7.39544,1.05496 -0.43906,0.25321 -2.74666,1.00828 -5.12806,1.67809 -2.38143,0.66973 -4.79846,1.4314 -5.37122,1.69258 -1.43643,0.65503 -2.79546,2.97704 -3.35465,5.73183 -0.50941,2.50953 -0.25699,4.39629 0.95358,7.12662 1.40609,3.17136 5.95096,9.90771 7.77413,11.52268 l 0.72782,0.64477 1.74197,-1.41665 c 3.50032,-2.84663 7.7255,-4.18959 11.1478,-3.54333 2.11601,0.39963 4.22594,1.45412 5.53947,2.7685 1.25354,1.25434 2.33411,3.73008 2.33411,5.34771 0,0.69004 0.0731,1.33787 0.16203,1.43961 0.28346,0.32307 3.45763,-1.15832 5.02901,-2.34703 z M 51.284522,703.8048 c 7.7896,-4.46355 17.16714,-7.5219 26.55118,-8.65927 l 1.65814,-0.20107 1.05124,-1.7941 c 1.80821,-3.08601 3.62845,-9.38467 3.9312,-13.60338 0.54791,-7.63527 -4.08415,-14.09072 -11.22579,-15.64479 -3.02574,-0.65844 -8.99982,-0.68836 -11.97434,-0.0599 -12.29978,2.59831 -21.71619,10.33523 -24.17408,19.86242 -1.64233,6.36598 -0.98136,9.99584 2.75919,15.15293 1.8791,2.59071 3.92697,4.42741 6.04132,5.41828 2.12799,0.99728 2.94405,0.92586 5.38194,-0.47108 z"
       id="path3244"
       inkscape:connector-curvature="0" />
  </g>
</svg>
