<?xml version="1.0" standalone="no"?>
<!DOCTYPE svg PUBLIC "-//W3C//DTD SVG 20010904//EN"
 "http://www.w3.org/TR/2001/REC-SVG-20010904/DTD/svg10.dtd">
<svg version="1.0" xmlns="http://www.w3.org/2000/svg"
 width="1076.000000pt" height="1076.000000pt" viewBox="0 0 1076.000000 1076.000000"
 preserveAspectRatio="xMidYMid meet">

<g transform="translate(0.000000,1076.000000) scale(0.100000,-0.100000)"
fill="#000000" stroke="none">
<path d="M5070 10699 c-1036 -59 -2036 -421 -2865 -1039 -221 -164 -371 -295
-596 -519 -287 -288 -457 -493 -670 -812 -700 -1047 -1002 -2317 -853 -3589
253 -2169 1836 -3978 3959 -4525 141 -36 287 -67 468 -100 l27 -4 0 1859 0
1860 -675 0 -675 0 0 775 0 775 675 0 675 0 0 653 c0 358 5 706 10 772 86
1013 660 1651 1620 1800 222 35 655 30 1050 -11 156 -16 494 -61 523 -70 16
-5 17 -45 17 -658 l0 -653 -417 -6 c-375 -5 -428 -8 -517 -27 -182 -39 -301
-103 -412 -223 -74 -80 -132 -189 -166 -312 -22 -78 -23 -97 -26 -672 l-3
-593 739 0 738 0 -101 -657 c-56 -362 -110 -711 -120 -776 l-18 -117 -618 0
-619 0 0 -1860 0 -1859 33 5 c151 27 398 81 522 115 1855 507 3298 1971 3768
3824 73 285 115 534 149 870 16 163 16 724 0 900 -96 1039 -451 1962 -1068
2775 -293 387 -670 761 -1059 1051 -1008 751 -2236 1119 -3495 1048z"/>
</g>
</svg>
