<?xml version="1.0" standalone="no"?>
<!DOCTYPE svg PUBLIC "-//W3C//DTD SVG 20010904//EN"
 "http://www.w3.org/TR/2001/REC-SVG-20010904/DTD/svg10.dtd">
<svg version="1.0" xmlns="http://www.w3.org/2000/svg"
 width="1232.000000pt" height="1232.000000pt" viewBox="0 0 1232.000000 1232.000000"
 preserveAspectRatio="xMidYMid meet">

<g transform="translate(0.000000,1232.000000) scale(0.100000,-0.100000)"
fill="#000000" stroke="none">
<path d="M5318 10454 c-39 -21 -73 -85 -102 -194 -25 -94 -59 -272 -71 -380
-8 -64 -26 -94 -128 -217 -85 -102 -174 -174 -245 -197 -97 -33 -130 -100
-142 -289 -6 -106 -14 -149 -38 -217 -66 -191 -134 -304 -227 -378 -182 -145
-465 -584 -548 -847 -60 -194 -59 -308 4 -434 81 -163 230 -268 393 -278 154
-10 214 28 285 178 85 180 184 277 326 318 22 7 99 16 170 21 212 15 348 61
524 177 110 73 274 232 364 353 39 52 74 99 78 104 11 13 62 -101 95 -211 23
-75 27 -108 28 -223 1 -179 -23 -261 -112 -384 -85 -116 -174 -170 -657 -395
-379 -177 -458 -227 -550 -346 -41 -52 -92 -151 -83 -160 2 -3 69 2 149 10
458 45 933 66 1514 66 583 1 913 -13 1394 -57 95 -9 177 -12 181 -7 4 4 17 78
29 163 72 532 51 1062 -59 1496 -189 744 -625 1214 -1311 1412 -298 86 -662
322 -940 609 -99 102 -219 254 -219 278 0 21 -29 45 -53 45 -12 -1 -34 -7 -49
-16z"/>
<path d="M5635 6190 c-336 -19 -879 -75 -980 -101 -133 -35 -272 -165 -354
-332 -83 -170 -114 -323 -109 -537 l3 -125 2069 -3 c1232 -1 2074 2 2079 7 16
16 10 280 -8 375 -43 233 -144 422 -283 531 -104 83 -166 96 -642 139 -151 14
-349 30 -440 36 -211 15 -1126 21 -1335 10z"/>
<path d="M6728 4180 l74 -70 191 0 192 0 52 68 52 67 -112 3 c-89 2 -120 -1
-150 -15 -34 -15 -42 -15 -70 -3 -21 9 -79 15 -167 17 l-135 3 73 -70z"/>
<path d="M3779 4045 c-224 -36 -422 -164 -523 -338 -95 -163 -92 -381 6 -542
91 -148 236 -256 418 -308 181 -52 404 -38 575 38 183 80 339 257 374 423 50
239 -47 459 -270 610 -151 102 -385 149 -580 117z m251 -355 c29 -23 53 -55
74 -99 28 -59 31 -76 31 -157 0 -84 -3 -96 -35 -160 -80 -156 -226 -179 -334
-52 -95 110 -91 328 7 435 54 59 88 74 158 70 46 -2 64 -9 99 -37z"/>
<path d="M6874 4050 c-183 -25 -368 -118 -479 -242 -25 -28 -63 -88 -85 -132
-78 -163 -77 -312 2 -474 65 -134 173 -235 322 -302 243 -111 580 -95 806 37
60 36 144 116 174 167 26 45 56 137 56 173 l0 23 -244 0 -244 0 -7 -30 c-16
-71 -100 -129 -188 -130 -92 0 -184 68 -229 168 -32 71 -30 189 4 263 50 110
137 165 248 157 75 -5 124 -41 160 -115 l25 -52 243 -1 242 0 -6 43 c-39 255
-292 432 -644 450 -52 3 -122 1 -156 -3z"/>
<path d="M8111 4003 c-11 -23 -452 -1102 -458 -1125 -5 -15 14 -17 215 -18
167 0 221 2 229 12 5 7 25 50 43 96 l32 82 208 0 207 0 33 -87 c18 -49 38 -91
44 -95 6 -4 111 -8 234 -8 171 0 222 3 222 13 0 6 -107 266 -238 577 l-237
565 -262 3 c-242 2 -263 1 -272 -15z m307 -520 c18 -49 32 -91 32 -95 0 -5
-34 -8 -76 -8 -57 0 -75 3 -71 13 3 6 20 49 38 95 17 45 35 82 38 82 4 0 21
-39 39 -87z"/>
<path d="M1842 3438 l3 -573 215 0 215 0 3 288 c1 158 6 287 10 287 4 -1 106
-129 226 -285 120 -156 226 -287 234 -290 23 -8 522 -5 522 4 0 4 -77 97 -172
207 -268 310 -338 395 -338 414 0 9 19 39 42 66 65 76 244 270 337 367 l85 87
-266 0 -266 0 -197 -232 c-109 -128 -202 -234 -206 -236 -5 -2 -9 102 -9 232
l0 236 -220 0 -220 0 2 -572z"/>
<path d="M4762 3438 l3 -573 213 -3 212 -2 0 281 c0 178 4 279 10 277 5 -1 94
-127 198 -278 l188 -275 267 -3 267 -2 0 575 0 575 -215 0 -215 0 -2 -284 -3
-285 -189 285 -189 284 -273 0 -274 0 2 -572z"/>
<path d="M9250 3435 l0 -575 218 2 217 3 5 195 5 195 90 3 c98 4 160 -9 174
-36 5 -9 14 -57 20 -107 21 -160 41 -219 82 -240 22 -12 72 -15 224 -15 107 0
195 4 195 8 0 5 -12 42 -26 83 -20 56 -28 105 -34 199 -8 136 -19 171 -72 241
l-35 45 37 42 c71 79 87 231 36 331 -39 76 -110 143 -182 172 -59 24 -61 24
-506 27 l-448 3 0 -576z m707 223 c11 -13 23 -31 26 -40 8 -22 -10 -75 -28
-82 -12 -4 -157 -8 -237 -7 l-28 1 0 75 0 75 123 0 c115 0 125 -1 144 -22z"/>
<path d="M4240 2565 c0 -3 16 -27 36 -55 35 -48 38 -50 84 -50 46 0 49 2 84
50 20 28 36 52 36 55 0 3 -18 5 -39 5 -31 0 -44 -6 -60 -26 l-21 -27 -21 27
c-16 20 -29 26 -60 26 -21 0 -39 -2 -39 -5z"/>
<path d="M4245 2413 c-103 -54 -125 -162 -50 -238 27 -26 56 -41 123 -61 129
-39 143 -45 153 -71 19 -51 -30 -93 -107 -93 -59 0 -94 21 -114 70 -11 27 -17
30 -54 30 -58 0 -68 -9 -56 -48 15 -55 47 -97 92 -122 37 -21 56 -25 133 -25
78 0 96 4 134 25 117 66 118 230 2 289 -20 11 -77 31 -125 45 -99 29 -116 39
-116 71 0 31 22 47 75 53 58 6 100 -12 116 -49 11 -28 15 -30 63 -27 50 3 51
3 50 35 -2 44 -39 92 -88 114 -53 24 -187 26 -231 2z"/>
<path d="M6440 2422 c-43 -2 -49 -6 -162 -125 l-117 -122 -1 123 0 122 -55 0
-55 0 0 -280 0 -280 55 0 55 0 0 81 c0 80 0 82 41 130 22 27 45 49 50 49 5 0
43 -58 85 -130 l76 -130 69 0 c38 0 69 3 69 7 0 3 -45 75 -100 159 -55 84
-103 160 -107 169 -4 12 24 46 98 121 57 57 99 104 94 105 -6 0 -19 1 -30 2
-11 1 -40 1 -65 -1z"/>
<path d="M4846 2412 c-3 -5 -51 -125 -107 -268 -55 -142 -103 -265 -106 -271
-4 -10 11 -13 55 -13 l60 0 24 65 23 66 115 -3 114 -3 25 -62 24 -63 59 0 c52
0 59 2 54 18 -3 9 -53 134 -110 277 l-104 260 -60 3 c-33 2 -63 -1 -66 -6z
m103 -225 c17 -48 31 -92 31 -98 0 -5 -34 -9 -76 -9 -57 0 -75 3 -71 13 2 6
19 54 38 104 18 51 36 90 40 85 3 -4 20 -47 38 -95z"/>
<path d="M5260 2140 l0 -280 55 0 55 0 0 125 0 125 115 0 115 0 0 -125 0 -125
55 0 55 0 0 280 0 280 -55 0 -54 0 -3 -107 -3 -108 -112 -3 -113 -3 0 111 0
110 -55 0 -55 0 0 -280z"/>
<path d="M6620 2140 l0 -280 200 0 200 0 0 45 0 44 -142 3 -143 3 -3 233 -2
232 -55 0 -55 0 0 -280z"/>
<path d="M7102 2203 c4 -239 8 -256 68 -307 41 -34 69 -41 165 -41 99 1 157
28 189 90 19 36 21 60 24 258 l3 217 -55 0 -55 0 -3 -211 -3 -211 -28 -24
c-42 -36 -116 -34 -159 5 l-33 29 -4 206 -3 206 -55 0 -55 0 4 -217z"/>
<path d="M7670 2141 l0 -281 158 0 c86 0 174 5 196 9 80 19 138 115 115 194
-10 34 -56 87 -76 87 -19 0 -16 9 17 46 39 45 47 93 24 140 -37 73 -53 79
-255 82 l-179 3 0 -280z m320 169 c27 -27 25 -56 -5 -85 -22 -23 -32 -25 -110
-25 l-85 0 0 65 0 65 90 0 c77 0 93 -3 110 -20z m-21 -210 c39 -11 60 -35 61
-71 0 -56 -48 -78 -177 -79 l-63 0 0 80 0 80 73 0 c39 0 87 -4 106 -10z"/>
</g>
</svg>
