<svg xmlns="http://www.w3.org/2000/svg" version="1.0" width="3410.000000" height="1435.000000" preserveAspectRatio="xMidYMid meet" style=""><rect id="backgroundrect" width="100%" height="100%" x="0" y="0" fill="none" stroke="none"/>


<g class="currentLayer" style=""><title>Layer 1</title><g transform="translate(0,1435) scale(0.10000000149011612,-0.10000000149011612) " fill="#0082ca" stroke="none" id="svg_1" class="selected" fill-opacity="1">
<path d="M18140 7145 l0 -125 1385 0 1385 0 0 125 0 125 -1385 0 -1385 0 0 -125z" id="svg_2" fill="#0082ca"/>
<path d="M23524 6626 c-66 -16 -134 -56 -166 -98 -14 -18 -42 -66 -62 -106 -20 -41 -356 -872 -745 -1848 l-709 -1774 705 2 705 3 141 413 140 412 706 0 707 0 144 -415 145 -415 744 0 c590 0 742 3 738 13 -2 6 -329 825 -726 1818 -527 1319 -731 1820 -759 1859 -53 77 -108 115 -191 134 -61 14 -164 16 -768 15 -519 0 -711 -4 -749 -13z m760 -1078 c16 -38 386 -1097 386 -1103 0 -3 -193 -5 -430 -5 -236 0 -430 3 -430 6 0 10 381 1098 391 1117 6 10 21 17 40 17 24 0 32 -6 43 -32z" id="svg_3" fill="#0082ca"/>
<path d="M2820 4715 l0 -1915 705 0 705 0 0 1915 0 1915 -705 0 -705 0 0 -1915z" id="svg_4" fill="#0082ca"/>
<path d="M5070 5949 l-590 -682 0 -521 0 -521 476 -585 c261 -322 494 -605 517 -628 53 -56 150 -126 208 -150 128 -55 129 -55 893 -59 l709 -4 -63 73 c-35 40 -426 493 -869 1007 -443 513 -807 937 -809 941 -1 4 364 411 813 904 448 493 815 899 815 901 0 3 -340 5 -755 5 l-755 0 -590 -681z" id="svg_5" fill="#0082ca"/>
<path d="M8550 6620 c-388 -22 -608 -108 -792 -310 -211 -231 -328 -582 -379 -1130 -19 -198 -16 -775 4 -975 55 -542 170 -869 386 -1098 157 -166 321 -242 616 -285 108 -15 226 -17 1135 -17 1085 0 1121 1 1329 51 409 97 661 416 775 986 75 369 93 1021 41 1477 -20 172 -65 398 -105 521 -46 142 -138 322 -214 417 -196 247 -414 338 -867 363 -200 11 -1726 11 -1929 0z m1522 -898 c49 -17 94 -70 113 -135 48 -167 70 -519 62 -1012 -8 -468 -29 -671 -84 -784 -21 -44 -34 -57 -72 -75 -45 -21 -56 -21 -561 -21 -510 0 -515 0 -563 22 -40 19 -52 31 -72 76 -57 124 -75 298 -82 794 -10 723 31 1054 138 1117 17 10 54 22 83 26 85 13 995 6 1038 -8z" id="svg_6" fill="#0082ca"/>
<path d="M12380 4716 l0 -1916 665 0 665 0 0 1096 c0 1082 0 1095 20 1092 12 -2 273 -344 740 -973 413 -556 748 -998 786 -1037 101 -102 205 -149 369 -168 50 -5 321 -10 603 -10 l512 0 0 1915 0 1915 -665 0 -665 0 0 -980 c0 -927 -1 -980 -17 -980 -12 1 -227 295 -632 866 -660 928 -685 960 -813 1023 -128 63 -134 64 -885 68 l-683 5 0 -1916z" id="svg_7" fill="#0082ca"/>
<path d="M18625 6620 c-391 -22 -602 -102 -789 -300 -218 -232 -333 -563 -388 -1125 -19 -198 -16 -819 5 -1015 49 -448 136 -735 289 -957 62 -90 193 -216 275 -266 134 -82 322 -129 580 -147 193 -13 1814 -13 2006 0 313 22 492 78 654 204 184 144 278 359 327 751 16 124 36 406 36 508 l0 57 -657 -2 -658 -3 -7 -130 c-8 -131 -29 -289 -48 -356 -16 -56 -51 -102 -95 -124 -38 -19 -60 -20 -555 -20 l-515 0 -50 25 c-79 40 -107 115 -137 365 -18 153 -18 1096 0 1250 31 257 59 336 137 375 l50 25 463 3 c592 4 626 0 678 -92 37 -66 74 -296 74 -462 l0 -64 661 0 662 0 -7 148 c-29 620 -112 912 -316 1105 -171 162 -363 226 -745 247 -186 11 -1738 10 -1930 0z" id="svg_8" fill="#0082ca"/>
<path d="M27110 4715 l0 -1915 705 0 705 0 0 1480 0 1480 483 0 c489 0 585 -6 639 -38 40 -23 76 -81 95 -155 24 -85 24 -356 1 -440 -22 -78 -59 -132 -111 -159 -41 -23 -48 -23 -444 -26 l-403 -3 0 -408 0 -408 328 -6 c207 -4 349 -11 388 -20 102 -22 202 -95 245 -179 44 -87 49 -144 49 -645 l0 -473 721 0 720 0 -4 568 c-3 496 -5 575 -20 631 -72 268 -279 423 -665 497 -51 10 -92 21 -92 25 0 4 26 13 58 19 418 81 615 255 693 611 58 267 43 718 -32 943 -38 113 -84 189 -162 269 -174 176 -349 236 -755 257 -97 5 -844 10 -1659 10 l-1483 0 0 -1915z" id="svg_9" fill="#0082ca"/>
</g></g></svg>