<?xml version="1.0" standalone="no"?>
<!DOCTYPE svg PUBLIC "-//W3C//DTD SVG 20010904//EN"
 "http://www.w3.org/TR/2001/REC-SVG-20010904/DTD/svg10.dtd">
<svg version="1.0" xmlns="http://www.w3.org/2000/svg"
 width="1016.000000pt" height="1016.000000pt" viewBox="0 0 1016.000000 1016.000000"
 preserveAspectRatio="xMidYMid meet">
<metadata>
Created by potrace 1.14, written by Peter Selinger 2001-2017
</metadata>
<g transform="translate(0.000000,1016.000000) scale(0.100000,-0.100000)"
fill="#000000" stroke="none">
<path d="M3925 9446 c-42 -19 -88 -68 -118 -129 -24 -49 -50 -112 -53 -129 -1
-5 -2 -9 -4 -10 -1 -2 -3 -10 -6 -18 -2 -8 -10 -40 -19 -70 -15 -53 -18 -68
-31 -127 -3 -15 -7 -30 -10 -35 -3 -5 -7 -23 -9 -41 -3 -18 -6 -43 -9 -57 -3
-14 -8 -41 -11 -60 -3 -19 -8 -46 -11 -60 -3 -14 -7 -43 -9 -65 -3 -22 -7 -51
-10 -65 -4 -14 -8 -36 -11 -50 -15 -85 -31 -130 -61 -179 -45 -76 -55 -91 -73
-112 -8 -11 -26 -33 -40 -50 -34 -44 -198 -208 -240 -241 -71 -56 -87 -66
-183 -118 -168 -92 -206 -158 -232 -405 -3 -33 -11 -91 -17 -130 -5 -38 -11
-81 -13 -95 -2 -14 -4 -25 -5 -25 -2 0 -7 -22 -15 -70 -4 -22 -11 -47 -15 -55
-4 -8 -8 -18 -8 -23 -1 -4 -9 -33 -18 -65 -10 -31 -18 -59 -19 -62 -1 -3 -8
-21 -17 -41 -9 -20 -19 -45 -22 -57 -4 -11 -18 -40 -31 -64 -13 -24 -31 -57
-38 -74 -20 -42 -144 -189 -266 -313 -56 -58 -112 -118 -124 -134 -12 -15 -33
-41 -47 -56 -32 -35 -77 -90 -95 -116 -64 -87 -126 -172 -134 -182 -6 -6 -25
-35 -43 -65 -18 -29 -38 -59 -45 -66 -7 -7 -13 -19 -13 -27 0 -7 -4 -15 -9
-17 -20 -8 -184 -311 -250 -463 -12 -27 -26 -59 -31 -70 -16 -35 -52 -129 -57
-150 -9 -39 -11 -50 -13 -52 -2 -2 -3 -6 -4 -10 -1 -5 -7 -30 -14 -58 -6 -27
-14 -63 -16 -80 -2 -16 -5 -30 -6 -30 -8 0 -6 -264 2 -297 6 -24 11 -49 11
-55 0 -7 4 -13 9 -13 4 0 8 -6 8 -14 0 -19 60 -136 82 -160 10 -11 18 -23 18
-28 0 -21 123 -146 204 -207 85 -65 212 -122 249 -113 4 1 7 -1 7 -6 0 -24
321 -19 340 6 3 4 12 8 20 10 57 13 149 124 225 272 21 41 42 77 47 78 4 2 8
9 8 16 0 26 102 158 177 228 67 64 213 161 213 142 0 -4 6 -2 13 3 18 15 76
32 132 38 28 3 61 8 75 10 14 3 54 7 90 11 36 3 76 7 90 9 14 2 50 7 80 10 30
4 87 13 125 22 39 8 80 17 93 19 85 17 378 143 402 173 8 10 43 31 63 37 9 4
17 10 17 15 0 5 6 9 14 9 8 0 21 6 28 13 7 6 36 30 63 52 91 72 119 98 270
250 83 82 188 197 235 255 47 58 95 115 108 127 25 23 52 21 52 -3 0 -8 4 -14
10 -14 5 0 9 -3 8 -7 -1 -5 5 -22 14 -38 24 -45 106 -293 113 -340 3 -23 8
-52 10 -65 3 -14 7 -65 10 -113 2 -48 7 -92 10 -97 4 -6 3 -10 -2 -10 -4 0 -8
-26 -9 -58 -2 -190 -59 -363 -169 -517 -52 -71 -125 -149 -180 -190 -22 -16
-42 -33 -45 -36 -10 -12 -226 -129 -238 -129 -6 0 -12 -4 -12 -9 0 -8 -37 -24
-52 -22 -5 1 -8 -4 -8 -9 0 -6 -7 -10 -15 -10 -8 0 -15 -5 -15 -12 0 -6 -3 -9
-6 -5 -5 5 -284 -128 -364 -173 -53 -30 -261 -130 -270 -130 -5 0 -10 -5 -10
-11 0 -5 -4 -8 -9 -5 -5 3 -20 -3 -35 -15 -14 -11 -35 -22 -47 -24 -11 -2 -26
-9 -33 -14 -6 -5 -70 -39 -141 -76 -72 -37 -143 -75 -160 -86 -16 -11 -38 -22
-47 -25 -10 -4 -18 -10 -18 -15 0 -5 -6 -9 -13 -9 -13 0 -88 -58 -151 -118
-94 -90 -242 -314 -229 -348 3 -8 32 -10 91 -7 48 3 108 6 134 7 27 0 48 3 48
6 0 3 24 5 53 6 28 0 86 3 127 7 100 9 175 16 390 32 42 3 136 9 335 20 44 3
145 7 224 9 79 3 146 7 148 10 3 2 17 1 32 -4 16 -4 34 -4 42 1 8 4 19 3 26
-3 7 -6 13 -7 13 -2 0 25 1930 24 2385 -1 88 -5 253 -14 355 -20 62 -4 164
-13 240 -20 19 -2 78 -6 130 -10 52 -4 111 -8 130 -10 19 -2 105 -6 191 -9
l156 -6 13 63 c12 63 15 76 24 137 3 19 8 46 10 60 6 33 16 121 22 195 2 33 7
74 10 90 2 17 7 59 9 95 2 36 7 108 11 160 13 183 8 960 -6 960 -3 0 -6 26 -7
58 -2 59 -10 166 -17 217 -3 17 -8 57 -12 90 -3 33 -9 69 -11 80 -3 11 -6 36
-8 55 -2 19 -4 35 -5 35 -2 0 -7 24 -14 72 -3 21 -8 49 -11 63 -4 14 -9 38
-12 55 -10 60 -95 385 -117 450 -7 22 -19 58 -26 80 -7 22 -17 51 -23 65 -5
14 -11 32 -13 41 -2 8 -10 29 -19 45 -8 16 -15 33 -15 37 0 27 -144 329 -202
425 -21 34 -38 65 -38 68 0 2 -5 10 -10 17 -6 7 -27 37 -47 67 -20 30 -39 57
-42 60 -3 3 -12 16 -19 31 -7 14 -26 39 -43 57 -16 17 -29 33 -29 36 0 4 -8
14 -17 24 -10 10 -38 43 -63 72 -45 54 -246 258 -311 315 -19 17 -68 57 -109
90 -41 33 -77 62 -80 65 -11 12 -178 119 -203 131 -15 7 -27 16 -27 21 0 4 -4
8 -10 8 -5 0 -47 21 -92 46 -46 25 -84 45 -85 45 -2 -1 -29 11 -60 25 -85 39
-113 50 -163 69 -25 9 -54 21 -65 26 -24 10 -166 60 -180 63 -5 1 -15 5 -21 8
-6 4 -21 9 -35 12 -20 4 -96 31 -149 53 -8 3 -17 7 -20 7 -7 2 -69 26 -110 43
-76 32 -305 148 -308 155 -2 4 -9 8 -15 8 -10 0 -179 104 -258 160 -136 94
-287 210 -346 265 -11 11 -47 43 -79 70 -100 87 -434 427 -434 441 0 3 -11 15
-23 27 -23 21 -157 211 -157 221 0 13 -64 66 -79 66 -9 -1 -29 -7 -46 -14z"/>
<path d="M4827 2513 c-1 -1 -126 -3 -277 -4 -151 -2 -281 -7 -287 -12 -9 -6
-13 -5 -13 2 0 7 -4 10 -9 7 -8 -5 -89 -14 -201 -21 -25 -2 -45 -4 -45 -5 0 0
-29 -3 -65 -5 -36 -3 -83 -7 -105 -10 -39 -5 -107 -11 -195 -19 -25 -2 -65 -7
-90 -11 -25 -3 -63 -7 -85 -9 -22 -2 -67 -7 -100 -10 -33 -4 -80 -9 -105 -11
-25 -2 -45 -4 -45 -5 0 -1 -16 -3 -35 -6 -19 -2 -55 -6 -80 -10 -25 -3 -63 -7
-85 -9 -22 -2 -53 -7 -70 -11 -16 -3 -39 -8 -50 -9 -11 -2 -20 -4 -20 -5 0 -1
-9 -3 -19 -5 -11 -2 -29 -6 -40 -9 -12 -3 -24 -5 -29 -5 -14 -1 -130 -63 -168
-91 -100 -72 -260 -248 -315 -345 -45 -79 -84 -159 -84 -171 0 -8 -5 -14 -10
-14 -6 0 -9 -3 -8 -7 0 -5 -2 -17 -6 -28 -4 -11 -12 -31 -16 -45 -4 -14 -11
-34 -16 -45 -4 -11 -8 -25 -10 -32 -1 -7 -9 -40 -18 -75 -8 -35 -18 -76 -21
-93 -2 -16 -7 -41 -10 -54 -4 -23 -12 -87 -20 -166 -2 -22 -7 -101 -10 -175
-3 -74 -8 -159 -10 -188 -2 -28 -1 -53 3 -53 122 -21 3307 -30 5027 -15 1486
13 1718 16 1723 21 3 3 6 85 6 183 0 183 -7 288 -27 392 -3 14 -8 43 -12 65
-4 22 -16 66 -26 99 -10 32 -16 62 -13 67 3 5 0 9 -5 9 -6 0 -10 3 -9 8 3 12
-31 114 -43 128 -6 8 -9 14 -5 14 3 0 -20 50 -50 110 -31 61 -61 110 -66 110
-5 0 -6 5 -3 10 3 6 1 10 -4 10 -6 0 -11 5 -11 10 0 12 2 9 -77 105 -31 39
-69 79 -83 90 -13 11 -32 27 -41 36 -45 45 -191 118 -269 135 -49 10 -75 15
-106 18 -17 2 -39 6 -50 9 -10 4 -44 9 -74 12 -30 3 -68 8 -85 11 -28 5 -70
10 -170 18 -22 2 -65 6 -95 9 -100 12 -234 24 -330 32 -63 5 -111 9 -235 21
-33 3 -91 7 -130 10 -38 2 -101 6 -140 8 -38 3 -148 7 -244 10 -95 3 -176 7
-178 10 -3 3 -16 1 -29 -4 -13 -5 -24 -6 -24 -2 0 4 -228 8 -508 10 -279 2
-583 4 -675 5 -93 1 -169 1 -170 0z"/>
</g>
</svg>
