<svg id="svg" version="1.1" xmlns="http://www.w3.org/2000/svg" xmlns:xlink="http://www.w3.org/1999/xlink" width="400" height="400" viewBox="0, 0, 400,400"><g id="svgg"><path id="path0" d="M123.016 0.501 C 47.353 4.237,8.711 38.383,1.435 107.937 C -0.055 122.179,-0.055 277.821,1.435 292.063 C 4.905 325.238,14.632 348.008,33.312 366.688 C 51.992 385.368,74.762 395.095,107.937 398.565 C 122.179 400.055,277.821 400.055,292.063 398.565 C 356.429 391.832,391.832 356.429,398.565 292.063 C 400.055 277.821,400.055 122.179,398.565 107.937 C 391.894 44.169,357.062 8.839,293.651 1.523 C 285.994 0.640,138.141 -0.246,123.016 0.501 M287.302 38.013 C 335.539 43.098,357.152 65.034,362.059 113.889 C 363.540 128.630,363.540 271.370,362.059 286.111 C 357.109 335.396,335.396 357.109,286.111 362.059 C 271.370 363.540,128.630 363.540,113.889 362.059 C 65.036 357.152,43.060 335.498,38.020 287.302 C 35.675 264.880,36.371 123.769,38.918 105.159 C 44.253 66.180,66.353 44.194,105.556 38.865 C 122.461 36.567,267.150 35.888,287.302 38.013 M297.623 70.432 C 281.837 76.002,277.401 98.154,289.624 110.376 C 305.203 125.955,330.954 115.074,330.952 92.914 C 330.950 76.179,313.911 64.685,297.623 70.432 M186.905 97.672 C 102.704 109.149,67.130 210.725,126.009 271.551 C 184.071 331.533,285.008 301.391,301.338 219.192 C 314.766 151.601,255.215 88.362,186.905 97.672 M218.651 136.500 C 266.333 151.753,281.712 209.550,247.661 245.530 C 219.062 275.748,168.931 271.711,145.500 237.302 C 120.775 200.992,137.986 150.693,179.822 136.998 C 190.342 133.553,208.704 133.318,218.651 136.500 " stroke="none" fill="#000000" fill-rule="evenodd"></path></g></svg>