<svg xmlns="http://www.w3.org/2000/svg" width="16" height="16" fill="currentColor"><rect id="backgroundrect" width="100%" height="100%" x="0" y="0" fill="none" stroke="none"/>
  
<g class="currentLayer" style=""><title>Layer 1</title><path fill-rule="evenodd" d="M2.5 12a.5.5 0 0 1 .5-.5h10a.5.5 0 0 1 0 1H3a.5.5 0 0 1-.5-.5zm0-4a.5.5 0 0 1 .5-.5h10a.5.5 0 0 1 0 1H3a.5.5 0 0 1-.5-.5zm0-4a.5.5 0 0 1 .5-.5h10a.5.5 0 0 1 0 1H3a.5.5 0 0 1-.5-.5z" id="svg_1" class="selected" stroke="#0082ca" stroke-opacity="1"/></g></svg>