<svg xmlns="http://www.w3.org/2000/svg" width="16" height="16" fill="currentColor"><rect id="backgroundrect" width="100%" height="100%" x="0" y="0" fill="none" stroke="none"/>
  
  
<g class="currentLayer" style=""><title>Layer 1</title><path fill-rule="evenodd" d="M13.854 2.146a.5.5 0 0 1 0 .708l-11 11a.5.5 0 0 1-.708-.708l11-11a.5.5 0 0 1 .708 0Z" id="svg_1" class="" stroke-opacity="1" stroke="#0082ca"/><path fill-rule="evenodd" d="M2.146 2.146a.5.5 0 0 0 0 .708l11 11a.5.5 0 0 0 .708-.708l-11-11a.5.5 0 0 0-.708 0Z" id="svg_2" class="selected" stroke-opacity="1" stroke="#0082ca"/></g></svg>